<svg xmlns="http://www.w3.org/2000/svg" viewBox="0 0 500 500"><g id="freepik--Floor--inject-111"><g id="freepik--floor--inject-111"><path id="freepik--floor--inject-111" d="M77.66,238.71c-95.18,55-95.17,144,0,199s249.49,54.95,344.67,0,95.17-144,0-199S172.84,183.75,77.66,238.71Z" style="fill:#e0e0e0"></path><path d="M76.84,355.87l23.44,13.54,7-4L83.81,351.85ZM37.17,333,60.61,346.5l7-4L44.14,329Zm79.34,45.81,23.43,13.53,7-4-23.44-13.53Zm-107.39-62,11.82,6.82,7-4L11.23,310C10.43,312.22,9.73,314.49,9.12,316.78Zm147,84.9,23.44,13.53,7-4-23.44-13.54Zm79.34,45.8L259,461l7-4-23.44-13.53Zm46.64,18.88-7,4,11.93,6.89q5.94-.52,11.82-1.21Zm-86.31-41.78,23.44,13.53,7-4-23.44-13.53Z" style="fill:#fafafa"></path></g></g><g id="freepik--Shadow--inject-111"><path id="freepik--shadow--inject-111" d="M471.91,372.41C436.18,403,390.18,428.48,337,450.32c-10.55,4-18.13,3.92-24.89-.14L51.25,294.31c-6.57-3.95-6.46-10.21.25-14.08L176.55,208c6.7-3.87,17.54-3.94,24.38-.15L471.66,358C478.7,362,478.08,366.66,471.91,372.41Z" style="opacity:0.25"></path></g><g id="freepik--Car--inject-111"><g id="freepik--car--inject-111"><path d="M263.76,390.25,307.58,365s-17.12-24.76-36.86-11.66C254.07,364.33,263.76,390.25,263.76,390.25Z" style="fill:#263238"></path><path d="M87.67,281.76l43.82-25.3S114.37,231.7,94.62,244.8C78,255.84,87.67,281.76,87.67,281.76Z" style="fill:#263238"></path><path d="M280.47,370l-5.89-11.69,14-8.11h0c4.46-2.56,10.39-2.27,16.91,1.49,13.83,8,25.05,28.6,25.05,46,0,9.12-3.08,15.56-8,18.49h0l-.2.12h0L308,424.6l-6.21-12.34C290,403.26,280.92,385.51,280.47,370Z" style="fill:#263238"></path><path d="M265.86,377.16c0,15,8.35,32.42,19.52,42,0,0,0,0,0,.05a36.37,36.37,0,0,0,5.5,3.93c13.84,8,25.06.34,25.05-17.09,0-13.16-6.4-28.16-15.5-38.14l-.08-.08a40.27,40.27,0,0,0-9.47-7.81C277.08,352.08,265.86,359.73,265.86,377.16Z" style="fill:#37474f"></path><path d="M265.86,377.16c0,15,8.35,32.42,19.52,42-6.62-7.2-13.47-19.25-15.89-30.75-2.12-10.05-1.33-24.47,7.3-28.12s20,4,23.6,7.54a40.27,40.27,0,0,0-9.47-7.81C277.08,352.08,265.86,359.73,265.86,377.16Z" style="fill:#455a64"></path><path d="M290.92,366.68c-10.34-6-18.71.37-18.71,14.15s8.37,29.78,18.71,35.75,18.71-.37,18.71-14.15S301.25,372.65,290.92,366.68Zm0,45.59c-8.55-4.94-15.48-18.18-15.48-29.58s6.93-16.64,15.48-11.7,15.48,18.18,15.48,29.58S299.47,417.2,290.92,412.27Z" style="fill:#f5f5f5"></path><path d="M306.4,400.57c0,4.33-1,7.79-2.73,10.11-2.78,3.8-7.45,4.64-12.74,1.59-8.57-4.94-15.5-18.17-15.5-29.57,0-8,3.39-12.93,8.35-13.51a11.74,11.74,0,0,1,7.15,1.79C299.47,375.92,306.4,389.17,306.4,400.57Z" style="fill:#e0e0e0"></path><path d="M306.4,400.57c0,4.33-1,7.79-2.73,10.11-2.78,3.8-7.45,4.64-12.74,1.59-8.57-4.94-15.5-18.17-15.5-29.57,0-8,3.39-12.93,8.35-13.51a11.74,11.74,0,0,1,7.15,1.79C299.47,375.92,306.4,389.17,306.4,400.57Z" style="opacity:0.4"></path><path d="M306.4,400.57c0,4.33-1,7.79-2.73,10.11a11.61,11.61,0,0,1-7.16-1.78C288,404,281,390.72,281,379.33c0-4.35,1-7.81,2.75-10.14a11.74,11.74,0,0,1,7.15,1.79C299.47,375.92,306.4,389.17,306.4,400.57Z" style="fill:#263238"></path><path d="M288.82,384.5,286,392.62l-6.65-14.56a12.49,12.49,0,0,1,1.41-4.95Z" style="fill:#e0e0e0"></path><path d="M286.06,390.91l5,7.07-5,5.67a9.76,9.76,0,0,1-2.8-3.83Z" style="fill:#e0e0e0"></path><path d="M296.63,396.65l-1.41.6-.35-1.62-5.51,1.53,11.3,16.09a8.44,8.44,0,0,0,3-2.57,8.14,8.14,0,0,0,.5-.75Z" style="fill:#e0e0e0"></path><path d="M305.81,394.6l-9.18,2h0l-.85-1.37-.91.35-1.5-7.06,1.11.64-.07-1.83,9.28-.06A39.42,39.42,0,0,1,305.81,394.6Z" style="fill:#e0e0e0"></path><path d="M294.41,387.38l-1.39-.45.35,1.64-6-3.49,5.3-13a27.42,27.42,0,0,1,4.48,4.2Z" style="fill:#e0e0e0"></path><path d="M296.77,395c0,4.31-2.62,6.29-5.85,4.43s-5.86-6.88-5.86-11.19,2.62-6.3,5.86-4.43S296.77,390.7,296.77,395Z" style="fill:#f5f5f5"></path><path d="M104.27,268.25l-5.89-11.7,14-8.11h0c4.46-2.56,10.39-2.27,16.91,1.49,13.84,8,25.06,28.6,25.06,46,0,9.13-3.08,15.57-8,18.49h0l-.19.11,0,0-14.37,8.29-6.21-12.34C113.81,301.54,104.73,283.79,104.27,268.25Z" style="fill:#263238"></path><path d="M89.67,275.44c0,15,8.34,32.42,19.51,42.05l0,0a36.88,36.88,0,0,0,5.49,3.94c13.84,8,25.07.33,25.06-17.09,0-13.17-6.41-28.17-15.5-38.15a.2.2,0,0,1-.08-.08,40.72,40.72,0,0,0-9.48-7.8C100.88,250.36,89.67,258,89.67,275.44Z" style="fill:#37474f"></path><path d="M89.67,275.44c0,15,8.34,32.42,19.51,42.05-6.62-7.2-13.47-19.26-15.89-30.76-2.12-10-1.32-24.47,7.3-28.11s20,4,23.61,7.53a40.72,40.72,0,0,0-9.48-7.8C100.88,250.36,89.67,258,89.67,275.44Z" style="fill:#455a64"></path><path d="M114.72,265c-10.33-6-18.71.37-18.71,14.15s8.38,29.78,18.71,35.75,18.71-.37,18.71-14.15S125.06,270.93,114.72,265Zm0,45.59c-8.55-4.93-15.48-18.18-15.48-29.58s6.93-16.63,15.48-11.7,15.48,18.18,15.48,29.58S123.27,315.49,114.72,310.55Z" style="fill:#f5f5f5"></path><path d="M130.21,298.85c0,4.34-1,7.79-2.73,10.12-2.79,3.79-7.46,4.63-12.75,1.58-8.56-4.94-15.49-18.17-15.49-29.57,0-8,3.39-12.93,8.34-13.5a11.67,11.67,0,0,1,7.15,1.79C123.28,274.21,130.21,287.46,130.21,298.85Z" style="fill:#e0e0e0"></path><path d="M130.21,298.85c0,4.34-1,7.79-2.73,10.12-2.79,3.79-7.46,4.63-12.75,1.58-8.56-4.94-15.49-18.17-15.49-29.57,0-8,3.39-12.93,8.34-13.5a11.67,11.67,0,0,1,7.15,1.79C123.28,274.21,130.21,287.46,130.21,298.85Z" style="opacity:0.4"></path><path d="M130.21,298.85c0,4.34-1,7.79-2.73,10.12a11.64,11.64,0,0,1-7.17-1.79c-8.55-4.92-15.48-18.17-15.48-29.57,0-4.35,1-7.8,2.75-10.13a11.67,11.67,0,0,1,7.15,1.79C123.28,274.21,130.21,287.46,130.21,298.85Z" style="fill:#263238"></path><path d="M112.62,282.79l-2.79,8.11-6.64-14.56a12.45,12.45,0,0,1,1.41-4.94Z" style="fill:#e0e0e0"></path><path d="M109.86,289.19l5,7.07-5,5.67a9.6,9.6,0,0,1-2.8-3.83Z" style="fill:#e0e0e0"></path><path d="M120.43,294.94l-1.4.59-.35-1.62-5.51,1.53,11.3,16.09a8.38,8.38,0,0,0,3-2.56c.18-.24.34-.5.5-.76Z" style="fill:#e0e0e0"></path><path d="M129.62,292.88l-9.19,2.06h0l-.85-1.38-.9.35-1.51-7.06,1.12.64-.08-1.83,9.28-.06A39.46,39.46,0,0,1,129.62,292.88Z" style="fill:#e0e0e0"></path><path d="M118.21,285.66l-1.39-.45.35,1.64-6-3.49,5.29-13a26.2,26.2,0,0,1,4.48,4.2Z" style="fill:#e0e0e0"></path><path d="M120.58,293.29c0,4.32-2.62,6.3-5.86,4.43s-5.85-6.88-5.85-11.19,2.62-6.29,5.85-4.43S120.58,289,120.58,293.29Z" style="fill:#f5f5f5"></path><path d="M355.09,245.32l-7.88,114.42,0,.23-4.38,37.39-31.57-18.19a62.78,62.78,0,0,0-8.95-12.89l-.11-.11a42.77,42.77,0,0,0-10-8.24,23.49,23.49,0,0,0-11.65-3.5c-10.38,0-17.09,8.92-17.09,22.73a47.4,47.4,0,0,0,.36,5.66l-.7.05L141.33,312.7a35.14,35.14,0,0,0,.92-8.33c0-13.41-6.33-29-16.13-39.8l-.11-.11a43.45,43.45,0,0,0-10-8.25,23.5,23.5,0,0,0-11.67-3.49c-10.38,0-17.08,8.92-17.08,22.72a47.23,47.23,0,0,0,.44,6.33l-7.3-4.22a60.69,60.69,0,0,1-29.66-43.49l-.37-11.9v-.06a3.55,3.55,0,0,1,5.36-3l34.53,20L198,176.88l30.71-3.62a67.35,67.35,0,0,1,31.17,3.67l49,18a33,33,0,0,1,14.43,10.42Z" style="fill:#78B3CE"></path><path d="M347.21,359.74l0,.23-4.38,37.39-31.57-18.19a62.78,62.78,0,0,0-8.95-12.89l-.11-.11a42.77,42.77,0,0,0-10-8.24,23.49,23.49,0,0,0-11.65-3.5c-10.38,0-17.09,8.92-17.09,22.73a47.4,47.4,0,0,0,.36,5.66l-.7.05L141.33,312.7a35.14,35.14,0,0,0,.92-8.33c0-13.41-6.33-29-16.13-39.8l-.11-.11a43.45,43.45,0,0,0-10-8.25,23.5,23.5,0,0,0-11.67-3.49c-10.38,0-17.08,8.92-17.08,22.72a47.23,47.23,0,0,0,.44,6.33l-7.3-4.22a60.69,60.69,0,0,1-29.66-43.49l-.37-11.9v-.06a3.55,3.55,0,0,1,5.36-3l34.53,20s38.5-1.09,53.85.6L199.32,260,222,315l6,3.64Z" style="opacity:0.25"></path><path d="M267.48,346.49c-34.76-12.7-59.38-23-83.87-30.87s-27.9-9-26.57-4.52,6.32,10.75,6.32,10.75l-14.7-9.15s-2.41-10.07-2-13.38,1.15-4.78,3.65-3.76,53.82,22.56,71.12,30.63S267.48,346.49,267.48,346.49Z" style="opacity:0.1"></path><path d="M248,173.77c-4.55-.2-8.83.8-18.63,6.45-12.3,7.1-73.94,42.69-84.06,48.31-8.88,4.93-10.18,8.72,1,12.92s46.72,17,54.47,20.38c10,4.37,10.19-1.65,23.27-10.27s60.45-37.65,79.66-44.57c15.43-5.55,10.45-9,5.14-12.05l-49-18A67.29,67.29,0,0,0,248,173.77Z" style="fill:#fff;opacity:0.30000000000000004"></path><path d="M213.25,191.54c-20.68,11.52-51.47,28.91-59.93,34.55s-13.4,8.93-5.65,12,32.45,10.68,42.08,14.74,12.75,7.91,12.75,7.91,2.16-7.94-12.35-15.42-21-12.14-16.23-21.13C177.4,217.58,201,199.77,213.25,191.54Z" style="fill:#fff;opacity:0.30000000000000004"></path><path d="M460.15,366.57l-24.36,14.07-28.08,19-42.22,21.58L354,427.83a8,8,0,0,1-7.53.27l-28.9-14a29.34,29.34,0,0,0,.6-3.56c.13-1,.2-2.1.24-3.21l3.45-1.69L341,396.29l24.4-11.93.05,0,79-39.42,8.47,11.45,5.47,7.39Z" style="fill:#263238"></path><path d="M365.49,421.21l42.22-21.58,28.08-19,24.36-14.07-1.77-2.82-5.47-7.39-8.47-11.45-79,39.42-.05,0-17.55,8.58,1.3,25.36L350.5,425l.6,3.79a8.11,8.11,0,0,0,2.91-1Z" style="fill:#37474f"></path><polygon points="429.4 377.61 406.99 395.63 367.43 413.92 380.78 390.27 403.3 377.99 419.15 368.3 429.4 377.61" style="fill:#263238"></polygon><path d="M456.45,341c-1.06,4.73-2.29,10.06-3.22,14h0l-.29,1.25,0,.11-.24,1-.28,1.16-.27,1.18-.12.47-.14.6-19,10.95-10.31-9.1L403.3,374.89l-23.92,12.64L366.75,409.9,354,417.28a8.06,8.06,0,0,1-7.53.27l-24.58-11.91-3.5-1.69a60.75,60.75,0,0,0-7.13-24.78l0-.05L341,396.29l1.85,1.07,22.55-13,.05,0,84.85-48.94,5.49-7.71C459.27,331.68,458.43,332.13,456.45,341Z" style="fill:#78B3CE"></path><path d="M458.38,363.75l-22.47,13-13-10.69L403.3,378l-22.52,12.29-15.29,27.09L354,424a8.06,8.06,0,0,1-7.53.27l-28.3-13.71c.13-1,.2-2.1.24-3.21,0-.41,0-.81,0-1.23,0-.72,0-1.43-.06-2.15l3.5,1.69,24.58,11.91a8.06,8.06,0,0,0,7.53-.27l12.77-7.38,12.63-22.37,23.92-12.64,19.28-12.25,10.31,9.1,19-10.95.14-.6.12-.47.27-1.18.28-1.16.24-1,0-.11.29-1.25Z" style="fill:#e0e0e0"></path><path d="M458.38,363.75l-22.47,13-13-10.69L403.3,378l-22.52,12.29-15.29,27.09L354,424a8.06,8.06,0,0,1-7.53.27l-28.3-13.71c.13-1,.2-2.1.24-3.21,0-.41,0-.81,0-1.23,0-.72,0-1.43-.06-2.15l3.5,1.69,24.58,11.91a8.06,8.06,0,0,0,7.53-.27l12.77-7.38,12.63-22.37,23.92-12.64,19.28-12.25,10.31,9.1,19-10.95.14-.6.12-.47.27-1.18.28-1.16.24-1,0-.11.29-1.25Z" style="opacity:0.25"></path><path d="M430.24,353.07a3.25,3.25,0,0,0-1.44,2c-.37,1.55-.86,4-.63,5.05.35,1.57,4.89,5.94,5.94,6.47s11.91-5.9,14-7.19,4.05-12.29,5.14-16.42c.51-1.93-.88-2.34-2.82-1.2C443.31,346,433.81,350.82,430.24,353.07Z" style="fill:#455a64"></path><path d="M371.25,387.65c.75-.35,1.26-.19,1.43.43a10.54,10.54,0,0,1,.43,4.35c-.44,2-5.41,11.37-6.53,13.06s-12.25,7.31-14.4,8.35-3.71-7.78-4.67-10.7c-.45-1.37,1-3.33,3-4.34C357.83,395.08,367.6,389.36,371.25,387.65Z" style="fill:#455a64"></path><path d="M451.43,341.36a5.38,5.38,0,0,0-1,.46c-7.13,4.18-16.63,9-20.2,11.25a3.25,3.25,0,0,0-1.44,2c-.37,1.55-.86,4-.63,5.05s2.45,3.47,4.15,5c1.33.31,11.87-5.92,13.94-7.19s4.05-12.29,5.14-16.42A1.81,1.81,0,0,0,451.43,341.36Z" style="fill:#263238"></path><path d="M371.08,387.74c-3.77,1.79-13.35,7.4-20.55,11.06-2,1-3.47,3-3,4.34.66,2,1.6,6.79,2.83,9.25,2.18-1.05,13.25-6.65,14.37-8.34s6.1-11.09,6.54-13.05A8.46,8.46,0,0,0,371.08,387.74Z" style="fill:#263238"></path><path d="M453.23,355l-1.37,5.8-19,10.95-10.31-9.1L403.3,374.89l-23.92,12.64-12.63,22.38L354,417.28a8.05,8.05,0,0,1-4.87,1L350.5,425a8,8,0,0,0,3.51-1l11.47-6.62,15.3-27.09L403.3,378l19.57-12,13,10.7,22.47-13Z" style="fill:#e0e0e0"></path><path d="M453.23,355l-1.37,5.8-19,10.95-10.31-9.1L403.3,374.89l-23.92,12.64-12.63,22.38L354,417.28a8.05,8.05,0,0,1-4.87,1L350.5,425a8,8,0,0,0,3.51-1l11.47-6.62,15.3-27.09L403.3,378l19.57-12,13,10.7,22.47-13Z" style="opacity:0.1"></path><path d="M339.37,386.31c0,7.82,1.36,9.86,4.24,11.52s8.66-2.34,22.63-10.41L451.85,338c9.15-5.27,1.81-9.67,1.81-9.67Z" style="fill:#263238"></path><path d="M355.09,245.31c46,28.89,91.28,53.14,97.32,60.36,3.87,4.63,6.69,7.59,5.21,18.08L432.9,341.29l-66.79,38.54L345.26,395c-4.79-1.18-5.68-5.67-6-9.49s-2.4-8.45-13.58-14.53C299,356.42,228,318.67,228,318.67Z" style="fill:#78B3CE"></path><path d="M452.41,305.67c-6-7.22-51.32-31.47-97.32-60.36L228,318.67s71,37.75,97.69,52.27c11.18,6.08,13.3,10.7,13.58,14.53,0,.53.09,1.08.17,1.64,0,0-.76-10.31,7-15.19,5.64-3.53,10.23-6.29,14-8.48s5.08-2.22,6.15-1.34,1.92,5.31,1.92,5.31l63-36.28-.62-8.41s7.57-4.73,15.37-9.4c7.11-4.25,8.8-3.9,10.72-.71C456.05,309.93,454.37,308,452.41,305.67Z" style="fill:#fff;opacity:0.30000000000000004"></path><path d="M368.6,367.41v8.16a3.3,3.3,0,0,0,4.75,3c4.82-2.37,17.51-9.14,28.06-15.23s22.45-13.73,26.58-16.68a8.56,8.56,0,0,0,3.59-7v-8.52a2.13,2.13,0,0,0-3.2-1.85l-56.51,32.47A6.55,6.55,0,0,0,368.6,367.41Z" style="fill:#455a64"></path><path d="M429.4,329.59a2.2,2.2,0,0,0-.08-.58,2.1,2.1,0,0,0-.94.27l-56.5,32.47a6.54,6.54,0,0,0-3.28,5.66v8.16a1.49,1.49,0,0,0,2.57,1.43c4.82-2.36,17.5-9.13,28.06-15.23S421.68,348,425.81,345.1a8.61,8.61,0,0,0,3.59-7Z" style="fill:#263238"></path><path d="M433.6,326l-.7,16.23a2.17,2.17,0,0,0,3.25,2l14.49-8.37c5.25-3,8.54-13.88,7.31-20.13a4.25,4.25,0,0,0-6.33-2.88L436,322.09A4.83,4.83,0,0,0,433.6,326Z" style="fill:#78B3CE"></path><path d="M433.6,326l-.7,16.23a2.17,2.17,0,0,0,3.25,2l14.49-8.37c5.25-3,8.54-13.88,7.31-20.13a4.25,4.25,0,0,0-6.33-2.88L436,322.09A4.83,4.83,0,0,0,433.6,326Z" style="opacity:0.25"></path><path d="M366.05,365l.7,15.43c.1,1.61-1.75,4.9-3.25,5.76L349,394.52c-5.25,3-8.54-4-7.31-11.69.57-3.55,3.79-8.54,6.33-10l15.66-9.05C365.07,363.05,366,363.47,366.05,365Z" style="fill:#78B3CE"></path><path d="M366.05,365l.7,15.43c.1,1.61-1.75,4.9-3.25,5.76L349,394.52c-5.25,3-8.54-4-7.31-11.69.57-3.55,3.79-8.54,6.33-10l15.66-9.05C365.07,363.05,366,363.47,366.05,365Z" style="opacity:0.25"></path><path d="M453.88,313.52a4.11,4.11,0,0,0-.47-1.27,4.22,4.22,0,0,0-1.79.57L436,322.09A4.83,4.83,0,0,0,433.6,326l-.67,15.56,13.64-7.87C451.82,330.62,455.11,319.77,453.88,313.52Z" style="opacity:0.25"></path><path d="M341.7,382.83c-.64,4,0,7.85,1.43,10.17a5.41,5.41,0,0,0,1.81-.66L359.43,384c1.5-.87,3.35-4.16,3.25-5.76l-.61-13.45-14,8.11C345.49,374.29,342.27,379.28,341.7,382.83Z" style="opacity:0.25"></path><path d="M256.38,306.89c57.37,28.11,98.17,50.84,98.17,50.84l11.43,4,65.14-37-.3-5.7s-30.74-23.9-91.61-58.87Z" style="fill:#78B3CE"></path><path d="M256.38,306.89c57.37,28.11,98.17,50.84,98.17,50.84l11.43,4,65.14-37-.3-5.7s-30.74-23.9-91.61-58.87Z" style="fill:#fff;opacity:0.2"></path><path d="M431.12,324.67s-61.7-42.8-95.84-62.14l-14.77,9.88c27.72,16.73,67.77,40.75,94.57,61.41Z" style="fill:#fafafa"></path><path d="M263,304c33.75,17.36,76.33,41.84,101.36,57.17l1.58.55,16.38-9.31s-60.47-35.72-102.42-57.15Z" style="fill:#fafafa"></path><path d="M311.22,379.12l0,.05A60.75,60.75,0,0,1,318.37,404l3.5,1.69,24.58,11.91a7.92,7.92,0,0,0,2.65.75l-6.29-20.94L341,396.29Z" style="opacity:0.25"></path><path d="M454.14,322.44c0,5.33-3.24,11.52-7.24,13.83s-7.24-.14-7.24-5.47,3.24-11.52,7.24-13.83S454.14,317.11,454.14,322.44Z" style="fill:#263238"></path><path d="M449,321.2a4.5,4.5,0,0,1-1.87,3.57c-1,.6-1.87,0-1.87-1.41a4.47,4.47,0,0,1,1.87-3.58C448.16,319.19,449,319.82,449,321.2Z" style="fill:#37474f"></path><path d="M449.7,327.84a7.21,7.21,0,0,1-3,5.77c-1.67,1-3-.05-3-2.28a7.23,7.23,0,0,1,3-5.77C448.35,324.6,449.7,325.62,449.7,327.84Z" style="fill:#37474f"></path><path d="M444.06,336.32a2.86,2.86,0,0,1-1.48-.38c-1.4-.79-2.15-2.75-2.07-5.36.16-4.83,3.11-10.56,6.58-12.77,1.53-1,3-1.16,4.13-.51,1.4.79,2.15,2.75,2.07,5.36-.15,4.83-3.11,10.56-6.58,12.78A5.11,5.11,0,0,1,444.06,336.32Zm5.68-19.09a4.75,4.75,0,0,0-2.48.83c-3.4,2.17-6.29,7.79-6.44,12.53-.08,2.5.62,4.35,1.91,5.08,1,.59,2.38.41,3.81-.49,3.4-2.17,6.29-7.79,6.44-12.53h0c.08-2.49-.61-4.35-1.91-5.08A2.63,2.63,0,0,0,449.74,317.23Z" style="fill:#fafafa"></path><path d="M427.88,336.74c0,3.27-2,7.08-4.45,8.49s-4.44-.08-4.44-3.36,2-7.08,4.44-8.5S427.88,333.46,427.88,336.74Z" style="fill:#37474f"></path><path d="M425.49,335.19a3,3,0,0,1-1.27,2.43c-.7.41-1.27,0-1.27-1a3.05,3.05,0,0,1,1.27-2.43C424.92,333.82,425.49,334.25,425.49,335.19Z" style="fill:#455a64"></path><path d="M425,340.35a4.93,4.93,0,0,1-2.06,3.93c-1.13.65-2,0-2-1.56a4.92,4.92,0,0,1,2-3.92C424,338.14,425,338.84,425,340.35Z" style="fill:#455a64"></path><ellipse cx="374.57" cy="367.86" rx="6.83" ry="3.86" transform="matrix(0.39, -0.92, 0.92, 0.39, -110.58, 568.49)" style="fill:#37474f"></ellipse><path d="M374.35,365.28a3,3,0,0,1-1.27,2.43c-.71.41-1.28,0-1.28-1a3,3,0,0,1,1.28-2.43C373.78,363.91,374.35,364.34,374.35,365.28Z" style="fill:#455a64"></path><path d="M377.49,367.74a4.93,4.93,0,0,1-2.06,3.93c-1.13.65-2.05,0-2.05-1.56a5,5,0,0,1,2.05-3.93C376.57,365.53,377.49,366.22,377.49,367.74Z" style="fill:#455a64"></path><ellipse cx="350.1" cy="382.87" rx="11.11" ry="6.29" transform="translate(-139.28 555.1) rotate(-66.95)" style="fill:#263238"></ellipse><path d="M352.2,377.44a4.5,4.5,0,0,1-1.87,3.58c-1,.59-1.88,0-1.88-1.42a4.48,4.48,0,0,1,1.88-3.57C351.36,375.43,352.2,376.07,352.2,377.44Z" style="fill:#37474f"></path><path d="M352.9,384.09a7.23,7.23,0,0,1-3,5.77c-1.67,1-3-.06-3-2.28a7.21,7.21,0,0,1,3-5.77C351.55,380.84,352.9,381.86,352.9,384.09Z" style="fill:#37474f"></path><path d="M347.26,392.57a3,3,0,0,1-1.48-.38c-1.4-.8-2.15-2.75-2.07-5.36.15-4.83,3.11-10.57,6.58-12.78,1.53-1,3-1.15,4.13-.51,1.4.8,2.15,2.75,2.07,5.36-.16,4.84-3.11,10.57-6.58,12.78A5,5,0,0,1,347.26,392.57Zm5.68-19.1a4.68,4.68,0,0,0-2.48.84c-3.4,2.16-6.29,7.78-6.44,12.53-.08,2.49.61,4.34,1.91,5.08,1,.59,2.38.41,3.81-.5,3.4-2.16,6.29-7.78,6.44-12.53h0c.08-2.49-.62-4.34-1.91-5.08A2.63,2.63,0,0,0,352.94,373.47Z" style="fill:#fafafa"></path><path d="M141.14,248.78l7.29,18.16c1.46,3.64,3.85,6.75,6.35,8.23L222,315c-3.63-8.95-13-32.12-17.69-44.87-3.4-9.21-4.12-9.63-5.21-10.26a31.85,31.85,0,0,0-3.58-1.62c-1-.39-2.12-.85-3.38-1.42-6.83-3-28.94-11.39-48.07-17.15C140.44,238.6,138.94,243.3,141.14,248.78Z" style="fill:#263238"></path><path d="M155.72,273.58c-2.14-1.27-4.28-4.08-5.58-7.33l-7.29-18.16c-1.2-3-1-5.38-.4-6.34a.66.66,0,0,1,.61-.37,1.84,1.84,0,0,1,.48.08c19.14,5.77,41,14.06,47.85,17.08,1.28.57,2.43,1,3.44,1.45a29.36,29.36,0,0,1,3.34,1.5c.58.33,1.24.72,4.41,9.3,4,10.86,11.25,29,15.65,39.85Z" style="fill:#37474f"></path><path d="M164.85,250.64l40.76,51.08,9.84,5.84c-3.92-9.71-10.52-26.19-14.12-36-2.85-7.71-3.44-8-4-8.37a27.32,27.32,0,0,0-2.94-1.33c-.92-.36-1.95-.79-3.13-1.32C187.06,258.72,176.56,254.67,164.85,250.64Z" style="fill:#455a64"></path><path d="M155.81,275.77l-1-.6-.16-.11a186,186,0,0,1,.3-31.93l1.1.36A186.76,186.76,0,0,0,155.81,275.77Z" style="fill:#263238"></path><path d="M200.35,261c-1.45,14,.44,30.25,2.59,42.7l-1.28-.76c-2.14-12.67-3.93-29-2.34-42.94A3.14,3.14,0,0,1,200.35,261Z" style="fill:#263238"></path><path d="M204.84,178.4,229.28,176c3.39-.34,3.74.76.79,2.45L136,232.46a29.12,29.12,0,0,1-11.5,3.25l-19.37.6c-3.4.1-3.76-1.19-.82-2.89l89.06-51.33A34.12,34.12,0,0,1,204.84,178.4Z" style="fill:#37474f"></path><polygon points="141.33 312.7 141.33 320.14 263.76 390.25 263.76 382.82 141.33 312.7" style="fill:#37474f"></polygon><path d="M198,176.85s-30-12.73-42.29-16.42c-6.14-1.84-7.3,1.79-5.21,6.57l29.94,20Z" style="fill:#78B3CE"></path><path d="M198,176.85s-30-12.73-42.29-16.42c-6.14-1.84-7.3,1.79-5.21,6.57l29.94,20Z" style="fill:#fff;opacity:0.30000000000000004"></path><path d="M180.46,187l7.09-4.09-17.43-9.43c-6.05-3.27-12.47-6.79-16.16-4.17Z" style="fill:#78B3CE"></path><path d="M151.21,164.2a2.3,2.3,0,0,0,1.78,1.13,6.05,6.05,0,0,0,1.4-.19c2.46-.46,5.15.24,7.52.87,10.86,2.9,21.85,8.27,31.62,10.54-1.5-1.06-31.1-13-38.14-15-2.45-.7-4.71,0-4.45,1.89A2,2,0,0,0,151.21,164.2Z" style="fill:#fff;opacity:0.30000000000000004"></path><path d="M180.46,187c-18.19-12-23.56-17.17-29.94-20L65.2,215.73l41.87,13.64Z" style="fill:#78B3CE"></path><path d="M180.46,187c-18.19-12-23.56-17.17-29.94-20L65.2,215.73l41.87,13.64Z" style="fill:#fff;opacity:0.2"></path><path d="M133.3,149.92,49.46,198.4,61.6,215.07l10.55,3,83.47-48.27C149.64,166,137.81,147.32,133.3,149.92Z" style="fill:#455a64"></path><path d="M54.56,205.4,141.68,155a31.88,31.88,0,0,0-4.59-4.18l-86,49.75Z" style="fill:#fff;opacity:0.30000000000000004"></path><path d="M72.15,218.08C65.72,214.52,54,195.8,49.46,198.4c-3,1.74,4.11,16.33,4.11,16.33Z" style="fill:#263238"></path><path d="M114.51,247.56c-.3-.86-.54-1.73-.93-3.11a2,2,0,0,1,.65-2.36c-2.79.09-2.06,1.42-1.18,4.07.25.76.44,1.36.67,2,.62,1.77.63,2.06,3.47,3.57C115.94,250.71,115.45,250.29,114.51,247.56Zm6,2.5c-.79-2.23-1.24-3.63-1.67-5.17a2.41,2.41,0,0,1,.68-2.77c-3.1.09-2.28,1.64-1.3,4.59.51,1.54,1.14,3.29,1.54,4.43.69,2,.74,2.4,3.9,4.08C122.27,254.05,121.77,253.62,120.51,250.06Zm6,2.5c-1.29-3.61-1.94-5.54-2.42-7.23a2.85,2.85,0,0,1,.73-3.18c-3.41.1-2.5,1.87-1.43,5.12.76,2.3,1.84,5.2,2.41,6.82.76,2.17.86,2.74,4.33,4.59C128.59,257.4,128.08,257,126.51,252.56Zm12,5c-2.3-6.35-3.35-9.35-3.92-11.35a3.86,3.86,0,0,1,.8-4c-4,.12-2.93,2.34-1.66,6.18s3.24,9,4.14,11.61,1.08,3.42,5.19,5.61C141.25,264.08,140.71,263.62,138.52,257.56Zm-6-2.5c-1.79-5-2.64-7.44-3.16-9.29a3.34,3.34,0,0,1,.76-3.6c-3.72.12-2.72,2.11-1.54,5.65,1,3.08,2.53,7.13,3.27,9.22.83,2.36,1,3.08,4.76,5.1C134.92,260.74,134.39,260.29,132.51,255.06Z" style="fill:#263238"></path><path d="M107.07,229.37l-16.84,9.72-34.53-20a3.59,3.59,0,0,0-3.47,0,3.65,3.65,0,0,0-1.89,3,10.17,10.17,0,0,1,1.44-5.29,6.44,6.44,0,0,1,7-3.1C63.5,214.7,107.07,229.37,107.07,229.37Z" style="fill:#78B3CE"></path><path d="M107.07,229.37l-16.84,9.72-34.53-20a3.59,3.59,0,0,0-3.47,0,3.65,3.65,0,0,0-1.89,3,10.17,10.17,0,0,1,1.44-5.29,6.44,6.44,0,0,1,7-3.1C63.5,214.7,107.07,229.37,107.07,229.37Z" style="fill:#fff;opacity:0.30000000000000004"></path><path d="M59.25,215c-4-.32-6,1.49-6.3,2.28s.84.58,4.16.17,8.29.67,21.8,5.22c12.78,4.31,22.78,7,22.91,6.75.38-.72-5.72-2.69-14.56-5.75S61.69,215.15,59.25,215Z" style="fill:#fff;opacity:0.30000000000000004"></path><path d="M215.39,351.48c-6.58-3.83-66.42-36-67.44-38.23a30.68,30.68,0,0,1-2.17-11c-.2-5.59-1.51-10.46,8.58-6.27,5,2.09,83.37,35.54,113.12,50.53-22-8.57-78.23-33.63-93.16-40s-22.18-9.64-24.44-9.64-2.26,1.18-2,5,.89,8.42,1.94,10.07,12.29,7.92,25.62,15.62S215.39,351.48,215.39,351.48Z" style="fill:#78B3CE"></path><path d="M215.39,351.48c-6.58-3.83-66.42-36-67.44-38.23a30.68,30.68,0,0,1-2.17-11c-.2-5.59-1.51-10.46,8.58-6.27,5,2.09,83.37,35.54,113.12,50.53-22-8.57-78.23-33.63-93.16-40s-22.18-9.64-24.44-9.64-2.26,1.18-2,5,.89,8.42,1.94,10.07,12.29,7.92,25.62,15.62S215.39,351.48,215.39,351.48Z" style="opacity:0.45"></path><path d="M230,317.51c24.43-9.27,50.23-20.52,75.45-34.75s40-26.91,47.37-36.15c0,0-20.77-27.38-34.66-42.37-4.53-4.9-25.68,3.21-56,20.71s-52.63,32.22-51.35,41.25C212.52,277.92,230,317.51,230,317.51Z" style="fill:#37474f"></path><path d="M231,315.16c-3.28-7.51-16.91-39.21-18.33-49.22-1.34-9.49,34.95-30.44,50.44-39.39,24.08-13.9,42.53-21.87,50.62-21.87a4.46,4.46,0,0,1,3.09.81c12.05,13,29.55,35.71,33.65,41.08-5.59,6.64-18.5,19.1-45.92,34.58C282.85,293.41,258.78,304.54,231,315.16Z" style="fill:#455a64"></path><path d="M294.9,286.44q4.91-2.61,9.67-5.29l3.05-1.75c-6.87-13-20.3-36.2-38.17-56.42-2.06,1.15-4.16,2.33-6.32,3.57l-6,3.49C275,250.58,288.34,273.91,294.9,286.44Z" style="fill:#fff;opacity:0.30000000000000004"></path><path d="M298.22,208.83a235.41,235.41,0,0,0-22.75,10.85c17.92,20.65,31.23,44,37.7,56.43a223.28,223.28,0,0,0,20.46-13.93C327.19,250,314.77,228.38,298.22,208.83Z" style="fill:#fff;opacity:0.30000000000000004"></path><path d="M142.22,302.55c-3.32-14.81-14.77-36.73-29.94-42.89s-24,3.13-24.76,11.45c0-9.09.34-11,4.67-14.21a74.64,74.64,0,0,1,7.71-5.07s9.54-2.48,20,5.65S141,280.24,142.22,302.55Z" style="fill:#78B3CE"></path><path d="M112.28,259.66c9.86,4,18.14,14.66,23.65,25.69a38.86,38.86,0,0,0-26.5-27.58c-2.6-.79-5.23-1.23-7.82-2a1.5,1.5,0,0,1-1.14-1c-.12-.47.37-1.23.71-1.59a7.25,7.25,0,0,1,2.44-1.68,16.25,16.25,0,0,0-3.72.35,74.64,74.64,0,0,0-7.71,5.07c-4.33,3.19-4.67,5.12-4.67,14.21C88.29,262.79,97.11,253.5,112.28,259.66Z" style="opacity:0.15"></path><path d="M130,269.2a5.52,5.52,0,0,0,2.16,1.69,56.09,56.09,0,0,0-12.3-13.41,29.41,29.41,0,0,0-6.84-4c-1.8.54-4.53,1.86-3.09,3.17a3.39,3.39,0,0,0,1.31.63A44.11,44.11,0,0,1,130,269.2Z" style="fill:#fff;opacity:0.30000000000000004"></path><path d="M318.37,404c-3.32-14.81-14.78-36.72-29.94-42.88s-24,3.13-24.76,11.45c0-9.09.34-11,4.66-14.21a75.3,75.3,0,0,1,7.72-5.07s9.54-2.48,19.95,5.65S317.13,381.65,318.37,404Z" style="fill:#78B3CE"></path><path d="M288.43,361.07c9.85,4,18.14,14.66,23.64,25.69a38.84,38.84,0,0,0-26.49-27.59c-2.6-.78-5.23-1.22-7.82-2a1.52,1.52,0,0,1-1.15-1c-.11-.47.38-1.24.71-1.59a7.45,7.45,0,0,1,2.44-1.68,16.1,16.1,0,0,0-3.71.35,75.3,75.3,0,0,0-7.72,5.07c-4.32,3.19-4.66,5.12-4.66,14.21C264.43,364.2,273.26,354.91,288.43,361.07Z" style="opacity:0.15"></path><path d="M306.15,370.61a5.56,5.56,0,0,0,2.15,1.69A56.09,56.09,0,0,0,296,358.89a29.36,29.36,0,0,0-6.83-4c-1.8.54-4.53,1.86-3.1,3.17a3.46,3.46,0,0,0,1.31.63A44.08,44.08,0,0,1,306.15,370.61Z" style="fill:#fff;opacity:0.30000000000000004"></path><path d="M373.56,304.79c-6.14-4-16.52-10.52-23.07-13.79-8.73-4.35-18.89-9.53-25.72-11.9l-31.29,18.69,50.73,24.43Z" style="fill:#78B3CE"></path><path d="M373.56,304.79c-6.14-4-16.52-10.52-23.07-13.79-8.73-4.35-18.89-9.53-25.72-11.9l-31.29,18.69,50.73,24.43Z" style="fill:#fff;opacity:0.25"></path><path d="M326.74,279.82c4.95,2.49,18.67,9.41,26.71,13.72,9.93,5.32,20.11,11.25,20.11,11.25-6.14-4-16.52-10.52-23.07-13.79C342.56,287.05,333.46,282.42,326.74,279.82Z" style="fill:#fff;opacity:0.25"></path><polygon points="343.02 328.36 293.48 297.79 344.21 322.22 343.02 328.36" style="fill:#78B3CE"></polygon><path d="M343,328.36s-.58-4.63,1.3-7.05,26.76-16.95,28.64-16.72,4.08,4.13,4.08,4.13C366.75,314.27,355.25,321,343,328.36Z" style="fill:#263238"></path><path d="M58.9,254.9v-9.42s-4.26-3-6.48-4.92S51,235.48,51,235.48l-.29-1.41a5.13,5.13,0,0,0-1.39,4c0,4.57.1,5.58.1,7.92C49.43,248.43,52.49,250.73,58.9,254.9Z" style="fill:#e0e0e0"></path><path d="M58.9,254.9v-9.42s-4.26-3-6.48-4.92S51,235.48,51,235.48l-.29-1.41a5.13,5.13,0,0,0-1.39,4c0,4.57.1,5.58.1,7.92C49.43,248.43,52.49,250.73,58.9,254.9Z" style="opacity:0.25"></path><path d="M58.9,245.48l1.32-.82S56,241.42,54.11,240a8,8,0,0,1-3.1-4.52c-.56,2.19-.22,3.78,1.41,5.08A77.61,77.61,0,0,0,58.9,245.48Z" style="fill:#e0e0e0"></path><polygon points="58.9 255.09 60.22 254.29 60.22 244.66 58.9 245.48 58.9 255.09" style="fill:#e0e0e0"></polygon><polygon points="58.9 255.09 60.22 254.29 60.22 244.66 58.9 245.48 58.9 255.09" style="opacity:0.1"></polygon></g></g></svg>
