<svg xmlns="http://www.w3.org/2000/svg" viewBox="0 0 500 500"><g id="freepik--Floor--inject-109"><g id="freepik--floor--inject-109"><path id="freepik--floor--inject-109" d="M77.66,238.71c-95.18,55-95.17,144,0,199s249.49,54.95,344.67,0,95.17-144,0-199S172.84,183.75,77.66,238.71Z" style="fill:#455a64"></path><path d="M76.84,355.87l23.44,13.54,7-4L83.81,351.85ZM37.17,333,60.61,346.5l7-4L44.14,329Zm79.34,45.81,23.43,13.53,7-4-23.44-13.53Zm-107.39-62,11.82,6.82,7-4L11.23,310C10.43,312.22,9.73,314.49,9.12,316.78Zm147,84.9,23.44,13.53,7-4-23.44-13.54Zm79.34,45.8L259,461l7-4-23.44-13.53Zm46.64,18.88-7,4,11.93,6.89q5.94-.52,11.82-1.21Zm-86.31-41.78,23.44,13.53,7-4-23.44-13.53Z" style="fill:#fafafa"></path></g></g><g id="freepik--Shadow--inject-109"><path id="freepik--shadow--inject-109" d="M186.85,217.59,77.5,280.85c-15.43,8.93-15.42,23.39,0,32.29L283.37,431.65c77.21,44.72,227.3-60.92,165.44-95.46L242.75,217.55C227.3,208.64,202.28,208.66,186.85,217.59Z" style="fill:#37474f"></path></g><g id="freepik--Car--inject-109"><g id="freepik--car--inject-109"><g id="freepik--back-car--inject-109"><path d="M300.77,209.29c-9.34-5.42-47.92-33.6-59.72-41.72-3.85-2.22-7-4-9.28-5.3-25.74-14.47-46.24-9.56-52.86-6.48s-8.23,5-10.75,10.92l-64.95,42.58Z" style="fill:#78B3CE"></path><path d="M300.77,209.29c-9.34-5.42-47.92-33.6-59.72-41.72-3.85-2.22-7-4-9.28-5.3-25.74-14.47-46.24-9.56-52.86-6.48s-8.23,5-10.75,10.92l-64.95,42.58Z" style="fill:#fff;opacity:0.4"></path><path d="M251,178.27s-71.31-21.16-76.91-15.19c-3.83,4.09,63.47,30.09,63.47,30.09Z" style="fill:#78B3CE;opacity:0.2"></path><path d="M229.45,166.4a1.35,1.35,0,0,1-.21.51,1.71,1.71,0,0,1-1.08.57,15.58,15.58,0,0,1-6.26-.4c-4.34-.9-8.65-2-13-2.8-5.16-1-10.65-2.33-15.87-3-10.06-1.32-19.74-1.62-7.51-5a48.52,48.52,0,0,1,15.93-1.31,64.94,64.94,0,0,1,14.29,2.55A43.41,43.41,0,0,1,227,162.75c1.26.82,2.62,2,2.5,3.47C229.46,166.28,229.46,166.34,229.45,166.4Z" style="fill:#fff;opacity:0.2"></path><polygon points="73.46 275.43 114.04 252 91.5 238.99 69.56 252.84 73.46 275.43" style="fill:#78B3CE"></polygon><polygon points="73.46 275.43 114.04 252 91.5 238.99 69.56 252.84 73.46 275.43" style="opacity:0.45"></polygon><path d="M90.56,269.86l-5.83-11.58,13.87-8h0c4.41-2.54,10.29-2.25,16.74,1.48,13.7,7.91,24.81,28.31,24.81,45.57,0,9-3.05,15.42-7.91,18.31h0l-.2.11,0,0L117.79,324l-6.15-12.22C100,302.83,91,285.26,90.56,269.86Z" style="fill:#37474f"></path><path d="M90.56,269.86l-5.83-11.58,13.87-8h0c4.41-2.54,10.29-2.25,16.74,1.48,13.7,7.91,24.81,28.31,24.81,45.57,0,9-3.05,15.42-7.91,18.31h0l-.2.11,0,0L117.79,324l-6.15-12.22C100,302.83,91,285.26,90.56,269.86Z" style="fill:#263238"></path><path d="M76.1,277c0,14.88,8.26,32.11,19.32,41.64l0,0a37,37,0,0,0,5.45,3.9c13.7,7.92,24.82.33,24.81-16.92,0-13-6.35-27.89-15.35-37.77,0,0-.06-.05-.08-.08a39.93,39.93,0,0,0-9.38-7.73C87.2,252.15,76.1,259.73,76.1,277Z" style="fill:#37474f"></path><path d="M76.1,277c0,14.88,8.26,32.11,19.32,41.64-6.55-7.13-13.34-19.07-15.74-30.45-2.1-9.95-1.31-24.24,7.23-27.84s19.82,4,23.38,7.46a39.93,39.93,0,0,0-9.38-7.73C87.2,252.15,76.1,259.73,76.1,277Z" style="fill:#455a64"></path><path d="M100.91,270.26c-8.72-5-15.79.31-15.79,11.94s7.07,25.13,15.79,30.16,15.78-.3,15.78-11.93S109.63,275.3,100.91,270.26Zm0,38.47c-7.22-4.17-13.07-15.34-13.07-25s5.85-14,13.07-9.87,13.06,15.34,13.06,25S108.12,312.9,100.91,308.73Z" style="fill:#f5f5f5"></path><path d="M114,298.86c0,3.65-.85,6.57-2.3,8.53-2.35,3.2-6.29,3.92-10.76,1.34-7.22-4.17-13.07-15.33-13.07-25,0-6.73,2.86-10.91,7-11.4a9.88,9.88,0,0,1,6,1.51C108.13,278.06,114,289.24,114,298.86Z" style="fill:#e0e0e0"></path><path d="M114,298.86c0,3.65-.85,6.57-2.3,8.53-2.35,3.2-6.29,3.92-10.76,1.34-7.22-4.17-13.07-15.33-13.07-25,0-6.73,2.86-10.91,7-11.4a9.88,9.88,0,0,1,6,1.51C108.13,278.06,114,289.24,114,298.86Z" style="opacity:0.4"></path><path d="M114,298.86c0,3.65-.85,6.57-2.3,8.53a9.8,9.8,0,0,1-6-1.5c-7.21-4.16-13.06-15.34-13.06-25,0-3.67.86-6.58,2.32-8.55a9.88,9.88,0,0,1,6,1.51C108.13,278.06,114,289.24,114,298.86Z" style="fill:#263238"></path><path d="M99.14,285.3l-2.36,6.85-5.61-12.29a10.62,10.62,0,0,1,1.19-4.17Z" style="fill:#e0e0e0"></path><path d="M96.81,290.71l4.22,6-4.18,4.79a8.26,8.26,0,0,1-2.36-3.24Z" style="fill:#e0e0e0"></path><path d="M105.73,295.56l-1.19.5-.3-1.37L99.59,296l9.54,13.58a7.25,7.25,0,0,0,2.54-2.17c.15-.2.28-.41.42-.63Z" style="fill:#e0e0e0"></path><path d="M113.47,293.82l-7.74,1.74h0l-.72-1.17-.77.3-1.26-6,.93.54-.06-1.55,7.83,0A32.54,32.54,0,0,1,113.47,293.82Z" style="fill:#e0e0e0"></path><path d="M103.85,287.72l-1.17-.37.3,1.38-5.08-3,4.46-10.95a22.36,22.36,0,0,1,3.79,3.54Z" style="fill:#e0e0e0"></path><path d="M105.85,294.17c0,3.64-2.21,5.31-4.94,3.73s-5-5.8-5-9.44,2.22-5.31,5-3.74S105.85,290.53,105.85,294.17Z" style="fill:#f5f5f5"></path><path d="M69.39,219.18c5-11.87,26-24.2,34.93-19.73,2.79,1.39,10.7,6.19,20.68,11.94,0,0,32.82,19.85,35.85,21.6,0,0-15.69-.27-19.25,1s-2.86,4-2.62,5l1.79,5.81c4.75,14.93,34.18,30.34,40.83,34.26s64.3,37.2,64.3,37.2l0,58.42L133.6,310.32a46.09,46.09,0,0,0-.25-4.8c-1.83-19-15.74-41-30.66-49.58-16.18-9.35-29.3-.62-29.3,19.5l-2.62-1.51C61.45,268.31,64.37,231.05,69.39,219.18Z" style="fill:#78B3CE"></path><path d="M69.39,219.18c5-11.87,26-24.2,34.93-19.73,2.79,1.39,10.7,6.19,20.68,11.94,0,0,32.82,19.85,35.85,21.6,0,0-15.69-.27-19.25,1s-2.86,4-2.62,5l1.79,5.81c4.75,14.93,34.18,30.34,40.83,34.26s64.3,37.2,64.3,37.2l0,58.42L133.6,310.32a46.09,46.09,0,0,0-.25-4.8c-1.83-19-15.74-41-30.66-49.58-16.18-9.35-29.3-.62-29.3,19.5l-2.62-1.51C61.45,268.31,64.37,231.05,69.39,219.18Z" style="fill:#fff;opacity:0.4"></path><path d="M95.73,199c3.34-.75,6.37-.69,8.64.45,2.79,1.38,10.71,6.19,20.69,11.94l13.43,7.74,71.59-41.24s-27.77-14.17-37.63-18S98.52,191.59,95.73,199Z" style="fill:#78B3CE"></path><path d="M95.73,199c3.34-.75,6.37-.69,8.64.45,2.79,1.38,10.71,6.19,20.69,11.94l13.43,7.74,71.59-41.24s-27.77-14.17-37.63-18S98.52,191.59,95.73,199Z" style="fill:#fff;opacity:0.5"></path><path d="M237.56,315.73l-55.27-31.66a4.23,4.23,0,0,0-1.66,3.67Z" style="fill:#fff;opacity:0.2"></path><path d="M192.31,297.79a.34.34,0,0,0,.51-.3v-1.57c0-1.2-1.79-3.2-4-4.47l-3.25-1.88c-2.2-1.27-4-1.34-4-.14v1.29a1.51,1.51,0,0,0,.76,1.31Z" style="fill:#37474f"></path><path d="M148.58,264.17c3.06,1.8,24,14.14,26.24,15.56a11,11,0,0,0-2.82,4.59s-62.37-34.73-76.37-47.13c-.66-.58-1.32-1.18-2-1.77-5.39-5-13.39-12-14-19.95-.57-7.59,9.73-11.61,15.77-12.5a15.82,15.82,0,0,1,9.26,1.8c2.47,1.2,5.84,2.83,7.62,5a3.47,3.47,0,0,1,.72,3.42,5,5,0,0,1-1.86,2L107.33,218a8.24,8.24,0,0,0-2.56,2.53,6.73,6.73,0,0,0-.16,5,22.65,22.65,0,0,0,3.48,7.69c2,2.8,4.73,5.56,7,8.14C123.06,250.43,133.74,255.47,148.58,264.17Z" style="fill:#fff;opacity:0.2"></path><path d="M149.85,274a.34.34,0,0,0,.51-.29v-1.58c0-1.19-1.79-3.2-4-4.47l-3.26-1.88c-2.2-1.27-4-1.33-4-.14v1.29a1.51,1.51,0,0,0,.76,1.31Z" style="fill:#37474f"></path><path d="M241.44,318.53s.25,17-.72,27.15c-1.13,12.06-1.57,19.19-4,17.9l-59.06-30.5s54,30.93,57.74,33.09,5.08,2,6.05-9.79S243.11,326.13,241.44,318.53ZM177,280.5s-4.06,4.5-3,12.5,2.87,33.47,2.87,33.47.1-22.89.1-32.53c0-8,3.15-11.7,3.15-11.7Zm-57.7-24.75c-2,2.58-3.39,9.45-3.39,9.45s3.08-5.61,5.36-8,10.51-5.27,10.51-5.27S121.3,253.17,119.32,255.75ZM70.69,242.92c-2.25-3.94-3.19-17.09-3.19-17.09s-.91,15.06,1.71,18.66,14.2,8.35,14.2,8.35S73,246.86,70.69,242.92Z" style="fill:#78B3CE;opacity:0.5"></path><path d="M327.22,195.43c-6.7-7.76-60.8-35.84-79.47-36-11.7-.11-28.16,1.87-37.36,4.25a59.12,59.12,0,0,0-11.16,4.43c-2.23,1.33-4.2,2.41-6.45,3.71L168.14,186l-29.52,17c-10.59,6.11-29.28,16.22-30.22,18.66-.49,1.28,0,2.47,1,3.7,1.35,1.81,3.73,4.38,6.82,8,5.94,7,7.75,4.51,9.47,4.63,5.57-1.57,11.89-3.19,18.79-4.84l28.3-.87a30.57,30.57,0,0,1,12.12,3.35c.41.21,27.57,14.34,34.33,20,3.66,3.09,5.13,5.77,8.12,10.51,0,0-4-7.82,2.45-10.75s32.49-12.79,51.33-22.73c15.82-8.35,39.25-29.49,42.52-30.68,4-1.48,12.34,4.91,12.34,4.91A106.87,106.87,0,0,0,327.22,195.43Z" style="fill:#78B3CE"></path><path d="M327.22,195.43c-6.7-7.76-60.8-35.84-79.47-36-11.7-.11-28.16,1.87-37.36,4.25a59.12,59.12,0,0,0-11.16,4.43c-2.23,1.33-4.2,2.41-6.45,3.71L168.14,186l-29.52,17c-10.59,6.11-29.28,16.22-30.22,18.66-.49,1.28,0,2.47,1,3.7,1.35,1.81,3.73,4.38,6.82,8,5.94,7,7.75,4.51,9.47,4.63,5.57-1.57,11.89-3.19,18.79-4.84l28.3-.87a30.57,30.57,0,0,1,12.12,3.35c.41.21,27.57,14.34,34.33,20,3.66,3.09,5.13,5.77,8.12,10.51,0,0-4-7.82,2.45-10.75s32.49-12.79,51.33-22.73c15.82-8.35,39.25-29.49,42.52-30.68,4-1.48,12.34,4.91,12.34,4.91A106.87,106.87,0,0,0,327.22,195.43Z" style="fill:#fff;opacity:0.7000000000000001"></path><path d="M124.17,224.58c11.32-1.32,16-2.48,23-6,7.7-3.87,17.23-9.91,20.67-11.9l52.05-30c21.47-12.39,23.41-14.41,16.92-14-6.15.41-14.08,1.33-18.35,2a95.13,95.13,0,0,0-12.54,3,83.13,83.13,0,0,0-12.61,6.18c-17.06,9.85-28.21,16.41-53.42,31-11.63,6.72-21.13,12.1-28.29,16.33C104.75,225.22,116.07,225.52,124.17,224.58Z" style="fill:#37474f"></path></g><g id="freepik--front-car--inject-109"><path d="M358.94,231h0l.91,3.8c2.1,3.93,6.74,8.89,8.4,8.48,1.49-.37,2.4-2.53,2.87-5.21v0a26.85,26.85,0,0,0,.38-3.88c.15-4.2-1.73-14-7.57-16.62a3,3,0,0,0-3.46.78,6.91,6.91,0,0,0-1.69,2.78C357.81,224.07,358.81,230.87,358.94,231Z" style="fill:#78B3CE"></path><path d="M358.94,231h0c.31,1.57.91,3.8.91,3.8,2.1,3.93,6.74,8.89,8.4,8.48,1.49-.37,2.4-2.53,2.87-5.21v0a26.85,26.85,0,0,0,.38-3.88c.15-4.2-1.73-14-7.57-16.62a3,3,0,0,0-3.46.78,6.91,6.91,0,0,0-1.69,2.78C357.81,224.07,358.81,230.87,358.94,231Z" style="fill:#fff;opacity:0.30000000000000004"></path><path d="M359.85,234.82c2.1,3.93,6.74,8.89,8.4,8.48,1.49-.37,2.4-2.53,2.87-5.21v0a26.85,26.85,0,0,0,.38-3.88c.15-4.2-1.73-14-7.57-16.62a3,3,0,0,0-3.46.78l.8,1.8c4.08,1.75,5.18,8.05,4.81,12.85S362.19,237.29,359.85,234.82Z" style="fill:#78B3CE"></path><path d="M358.79,221.13c1.48-1.57,5.14-1.65,8.23,2.59s4.09,11.51,4.1,14.33a26.69,26.69,0,0,0,.39-3.87c.14-4.21-1.73-14-7.56-16.62C361.51,216.47,359.49,219,358.79,221.13Z" style="fill:#37474f"></path><polygon points="250.61 377.45 291.19 354.03 264.08 338.03 250.61 351.46 250.61 377.45" style="fill:#78B3CE"></polygon><polygon points="250.61 377.45 291.19 354.03 264.08 338.03 250.61 351.46 250.61 377.45" style="opacity:0.45"></polygon><path d="M267.32,371.86l-5.83-11.58,13.88-8h0c4.41-2.53,10.29-2.25,16.74,1.48,13.7,7.91,24.81,28.32,24.81,45.57,0,9-3.05,15.42-7.92,18.31h0l-.19.11,0,0L294.56,426l-6.15-12.21C276.77,404.83,267.78,387.26,267.32,371.86Z" style="fill:#37474f"></path><path d="M267.32,371.86l-5.83-11.58,13.88-8h0c4.41-2.53,10.29-2.25,16.74,1.48,13.7,7.91,24.81,28.32,24.81,45.57,0,9-3.05,15.42-7.92,18.31h0l-.19.11,0,0L294.56,426l-6.15-12.21C276.77,404.83,267.78,387.26,267.32,371.86Z" style="fill:#263238"></path><path d="M252.86,379c0,14.88,8.27,32.1,19.33,41.63a.1.1,0,0,1,0,.05,37.35,37.35,0,0,0,5.44,3.89c13.71,7.92,24.82.34,24.81-16.92,0-13-6.34-27.89-15.35-37.77a.29.29,0,0,1-.07-.08,40.22,40.22,0,0,0-9.39-7.73C264,354.16,252.86,361.73,252.86,379Z" style="fill:#37474f"></path><path d="M252.86,379c0,14.88,8.27,32.1,19.33,41.63-6.56-7.13-13.34-19.07-15.74-30.45-2.1-9.95-1.31-24.23,7.23-27.84s19.81,4,23.38,7.46a40.22,40.22,0,0,0-9.39-7.73C264,354.16,252.86,361.73,252.86,379Z" style="fill:#455a64"></path><path d="M277.67,372.26c-8.72-5-15.79.31-15.79,11.94s7.07,25.13,15.79,30.17,15.79-.31,15.79-11.94S286.39,377.3,277.67,372.26Zm0,38.47c-7.21-4.16-13.06-15.34-13.06-25s5.85-14,13.06-9.87,13.06,15.34,13.06,25S284.89,414.9,277.67,410.73Z" style="fill:#f5f5f5"></path><path d="M290.74,400.86a14.36,14.36,0,0,1-2.31,8.54c-2.34,3.2-6.28,3.91-10.75,1.33-7.23-4.16-13.07-15.33-13.07-25,0-6.73,2.86-10.91,7-11.39a9.82,9.82,0,0,1,6,1.5C284.89,380.06,290.74,391.24,290.74,400.86Z" style="fill:#e0e0e0"></path><path d="M290.74,400.86a14.36,14.36,0,0,1-2.31,8.54c-2.34,3.2-6.28,3.91-10.75,1.33-7.23-4.16-13.07-15.33-13.07-25,0-6.73,2.86-10.91,7-11.39a9.82,9.82,0,0,1,6,1.5C284.89,380.06,290.74,391.24,290.74,400.86Z" style="opacity:0.4"></path><path d="M290.74,400.86a14.36,14.36,0,0,1-2.31,8.54,9.85,9.85,0,0,1-6-1.51c-7.21-4.16-13.06-15.34-13.06-24.95,0-3.67.85-6.59,2.32-8.55a9.82,9.82,0,0,1,6,1.5C284.89,380.06,290.74,391.24,290.74,400.86Z" style="fill:#263238"></path><path d="M275.9,387.3l-2.35,6.85-5.61-12.29a10.5,10.5,0,0,1,1.19-4.17Z" style="fill:#e0e0e0"></path><path d="M273.57,392.71l4.23,6-4.18,4.79a8,8,0,0,1-2.36-3.23Z" style="fill:#e0e0e0"></path><path d="M282.49,397.56l-1.18.5-.3-1.37L276.36,398l9.53,13.58a7.24,7.24,0,0,0,3-2.8Z" style="fill:#e0e0e0"></path><path d="M290.24,395.83l-7.75,1.73h0l-.71-1.17-.77.3-1.27-6,.94.54-.06-1.54,7.83-.05A33.4,33.4,0,0,1,290.24,395.83Z" style="fill:#e0e0e0"></path><path d="M280.62,389.73l-1.18-.38.3,1.38-5.08-2.94,4.47-11a22.77,22.77,0,0,1,3.78,3.55Z" style="fill:#e0e0e0"></path><path d="M282.61,396.17c0,3.64-2.21,5.31-4.94,3.74s-4.94-5.81-4.94-9.45,2.21-5.31,4.94-3.73S282.61,392.53,282.61,396.17Z" style="fill:#f5f5f5"></path><path d="M374.3,245.78s-2.53-4-11.4-14.53-25.09-26.5-31.58-32.45c-1.95-1.78-3.6-3.18-5-4.25l-1.76,1.86a356.28,356.28,0,0,1,46.85,49.32c2.54,4.4-8.31,14.61-24.36,25.93-33.33,23.49-89.14,51.76-94.4,42.64L228,261.41c-2.81-6-4.71-8.06-8.69-11.1l-3.38,2a27.15,27.15,0,0,1,3.41,2.81,22.9,22.9,0,0,1,5.26,8c3.67,8.54,17.23,38.53,18.59,41.75s3.22,6.59,2.66,11.57c-1.6,15.36-2.51,39.43,0,58.3l4.73,2.72c0-1.15,0-2.37.1-3.63,1.59-17.31,14-24.33,29.13-15.61.93.54,1.86,1.13,2.77,1.77,7,4.84,13.25,12.33,17.94,20.87a72.84,72.84,0,0,1,6.94,17.7,58.8,58.8,0,0,1,1.31,7.27c.64,5.43,11.94,9.07,35.43,9.83,20.84.67,42.24-5.59,58.12-14.15s16.69-9.17,28.4-17.44c12.75-9,17.71-24.78,19.38-34.06a89.19,89.19,0,0,0,1.29-9.1C457.38,299.77,425,281.85,374.3,245.78Z" style="fill:#78B3CE"></path><path d="M374.3,245.78s-2.53-4-11.4-14.53-25.09-26.5-31.58-32.45c-1.95-1.78-3.6-3.18-5-4.25l-1.76,1.86a356.28,356.28,0,0,1,46.85,49.32c2.54,4.4-8.31,14.61-24.36,25.93-33.33,23.49-89.14,51.76-94.4,42.64L228,261.41c-2.81-6-4.71-8.06-8.69-11.1l-3.38,2a27.15,27.15,0,0,1,3.41,2.81,22.9,22.9,0,0,1,5.26,8c3.67,8.54,17.23,38.53,18.59,41.75s3.22,6.59,2.66,11.57c-1.6,15.36-2.51,39.43,0,58.3l4.73,2.72c0-1.15,0-2.37.1-3.63,1.59-17.31,14-24.33,29.13-15.61.93.54,1.86,1.13,2.77,1.77,7,4.84,13.25,12.33,17.94,20.87a72.84,72.84,0,0,1,6.94,17.7,58.8,58.8,0,0,1,1.31,7.27c.64,5.43,11.94,9.07,35.43,9.83,20.84.67,42.24-5.59,58.12-14.15s16.69-9.17,28.4-17.44c12.75-9,17.71-24.78,19.38-34.06a89.19,89.19,0,0,0,1.29-9.1C457.38,299.77,425,281.85,374.3,245.78Z" style="fill:#fff;opacity:0.5"></path><path d="M380.07,404.17c14.62-3.65,25.24-9.41,35.61-15.52s17.13-11.84,21-16.69c3.65-4.58,5.87-10.54,3.56-9.7-3.83,3.3-12.11,10.31-17.38,13.5-15.8,9.58-32.57,21.45-58.36,21.89a21.33,21.33,0,0,0-5,.38C353.24,399.91,370.12,406.65,380.07,404.17Z" style="fill:#263238"></path><path d="M326.9,392.43c1.44-.21,5,.76,11.12,2.51s7.58,1.91,9.83,3.47c1.91,1.32,7,5.48,9.49,6.75,3.9,2,0,3.47-10.94,3.48s-14.62-3.26-17.14-6.62S323.62,392.88,326.9,392.43Z" style="fill:#37474f"></path><path d="M451.14,343.54h0c-.19,1.51-.5,3.65-1,6.46a68.67,68.67,0,0,1-3.91,13.47c-.81.74-1.53,1.24-2,1.21-1.86-.13-.26-3.34,1.07-8.13S449.93,347.1,451.14,343.54Z" style="fill:#37474f"></path><path d="M373.69,254.56a614.66,614.66,0,0,1,56.71,65C411,283.39,373.69,254.56,373.69,254.56ZM267.11,320.23c36.64,10.2,71.16,21.29,102.09,33.88C369.2,354.11,324.63,327.77,267.11,320.23Zm154.5,46.65c-16,9.41-36.79,22.37-60.35,23.14s-39.82-16.72-39.82-16.72,12.14,19.35,39.82,20,44.72-11.65,61.17-21.62c17.09-10.37,27.13-25.14,29.07-36.35C448.44,344.09,437.64,357.47,421.61,366.88ZM305.19,384.61c3.22-10.64,8.2-17.5,17.94-20.32C323.13,364.29,313,369.88,305.19,384.61Z" style="fill:#78B3CE;opacity:0.5"></path><path d="M436.2,296.63c-13.89-15.74-57.75-46.42-60-45.92-3.88.84,21.18,21.06,32.73,34.43,12.81,14.84,17.86,21.58,20.73,26.8,3.57,6.5,6.38,1.44,9.16-3.47S440.37,301.34,436.2,296.63ZM277.35,348.48c9.16,2,21,11.93,28.2,25.42.69-.59,2-1.6,2-1.6C300.76,356.46,287,348.13,277.35,348.48ZM363,354.79c-2.26-1.51-59.86-20.86-81.62-27.62s-30.3-6.18-20.78-2.1c8.46,3.62,42.31,25.57,48.88,29.9,5.26,3.46,16.52,5.66,32.28,6.21C355.71,361.67,369.7,359.26,363,354.79Zm-53.39,30a51.8,51.8,0,0,1,4.19,16.39,53.76,53.76,0,0,0-2.32-17.56Z" style="fill:#fff;opacity:0.2"></path><path d="M224.63,254.12l28.06,60.18c5.26,9.12,61.07-19.15,94.4-42.64,16.05-11.32,26.9-21.53,24.36-25.93a354.57,354.57,0,0,0-46.85-49.32q-2.58,2.64-5.35,5.16A168.55,168.55,0,0,1,305.42,213C283.94,229,256.51,242.52,224.63,254.12Zm7,6.52a4.56,4.56,0,0,1,2.51-6.16c30.17-11.56,54.26-24.2,73.44-38.51a170.83,170.83,0,0,0,14.11-11.68l0,0a4.57,4.57,0,0,1,6.13-.06,351,351,0,0,1,40.21,43.21c-.33,1.17-2.89,7-23.13,21.24-31.31,22.07-74.77,43.73-87.74,43.73a5.48,5.48,0,0,1-1.44-.15Z" style="fill:#37474f"></path><path d="M255.79,312.23a5.48,5.48,0,0,0,1.44.15c13,0,56.43-21.66,87.74-43.73,20.24-14.27,22.8-20.07,23.13-21.24a351,351,0,0,0-40.21-43.21,4.57,4.57,0,0,0-6.13.06l0,0A170.83,170.83,0,0,1,307.62,216c-19.18,14.31-43.27,26.95-73.44,38.51a4.56,4.56,0,0,0-2.51,6.16Z" style="fill:#263238"></path><path d="M345,268.65c-5.05,3.56-10.41,7.1-15.91,10.55-11.28-18.34-29.42-44.89-35.88-53.37q7.63-4.8,14.44-9.86,4.35-3.25,8.3-6.58c16.69,15.52,33.46,40.89,39.82,51.18C352.87,262.9,349.33,265.58,345,268.65Z" style="fill:#fff;opacity:0.2"></path><path d="M282.91,232c2-1.16,4-2.32,6-3.5a598.45,598.45,0,0,1,35.69,53.49c-2.21,1.35-4.45,2.68-6.68,4C310.64,274,296.55,251.59,282.91,232Z" style="fill:#fff;opacity:0.2"></path><path d="M289.53,299.61c-15.8,7.57-32.3,12.77-33.63,9.22S241.61,280.11,238.31,271,234.24,260.8,236.4,258s14.16-7.23,33.62-16.41S307.62,216,307.62,216c-19.18,14.31-43.27,26.95-73.44,38.51a4.56,4.56,0,0,0-2.51,6.16l24.12,51.59a5.48,5.48,0,0,0,1.44.15c13,0,56.43-21.66,87.74-43.73C338.54,273.35,305.34,292,289.53,299.61Z" style="fill:#fff;opacity:0.30000000000000004"></path><g id="freepik--Window--inject-109"><path d="M243.22,304.86c-1.36-3.22-14.92-33.21-18.59-41.75a22.9,22.9,0,0,0-5.26-8,27.15,27.15,0,0,0-3.41-2.81c-5.1-3.82-26.46-16.49-35.46-19.94s-16.28-1.92-27.14-1.24c-7.63.47-21.42,2.83-28.62,6.21s-6.33,5.4,1.85,10.12L245.9,316.31C246.4,311.39,244.56,308.05,243.22,304.86Z" style="fill:#263238"></path><path d="M127,247.63c-2-1.15-4.22-4.7-2.42-6,.44-.25,1-.56,1.81-.93,6.68-3.14,20.11-5.42,27.25-5.87,2-.12,3.91-.28,5.71-.42,3.25-.27,6.06-.5,8.78-.5a29.56,29.56,0,0,1,11.07,1.92c8.37,3.21,29.49,15.65,34.55,19.44l.13.09a23.49,23.49,0,0,1,2.85,2.35,19,19,0,0,1,4.48,6.87c2.16,5,7.73,17.46,12.21,27.45a44,44,0,0,1,3.34,14.72V311Z" style="fill:#37474f"></path><path d="M209.06,256.12c0-.66-.7-1.55-2.09-2.39-7.88-4.8-14.5-8.7-23-12.35-8.89-3.84-17.28-4-26.81-3.68-8.54.25-17.11,1.06-25.2,4-1.13.41-2.35,1.16-2.2,2.56.12,1.25,1.6,1.92,2.55,2.48a62.18,62.18,0,0,0,9.46,4.7c6.76,2.55,14.11,3.07,21.33,3,13.69-.11,27.51,1.78,41.05,3.73a7.88,7.88,0,0,0,3.71-.2A2.18,2.18,0,0,0,209.06,256.12Z" style="fill:#455a64"></path><path d="M142.9,233.93s-4,11.89-5.66,19.64l3,1.75c1.64-7.41,5.82-20.75,5.82-20.75Z" style="fill:#263238"></path><path d="M189.11,240.4c-2.51,5.84-9.75,31.24-10.55,37l3,1.74c.74-6.39,8-32.08,10.71-38.13Z" style="fill:#263238"></path></g><path d="M219.34,250.31l-3.37,2c-5.11-3.81-26.47-16.49-35.47-20s-16.28-1.91-27.14-1.23c-7.63.47-21.43,2.83-28.63,6.22a18.45,18.45,0,0,0-3.52,2s-.44-.38-1.8-1.75-3.69-4.43-3.69-4.43c4.9.54,17.39-3.31,36.24-5,19.21-1.74,23.82-.56,28.91.87S207.49,241.06,219.34,250.31Z" style="fill:#78B3CE"></path><path d="M219.34,250.31l-3.37,2c-5.11-3.81-26.47-16.49-35.47-20s-16.28-1.91-27.14-1.23c-7.63.47-21.43,2.83-28.63,6.22a18.45,18.45,0,0,0-3.52,2s-.44-.38-1.8-1.75-3.69-4.43-3.69-4.43c4.9.54,17.39-3.31,36.24-5,19.21-1.74,23.82-.56,28.91.87S207.49,241.06,219.34,250.31Z" style="fill:#fff;opacity:0.5"></path><path d="M408,344.25c-21.48,12.35-35.87,16.49-53.51,19.06a80.76,80.76,0,0,1-23-.18,15.7,15.7,0,0,0-6,7.47s7.93,7.9,11.84,8.57c7.61,1.31,22,.49,22,.49s5.29,4.67,8.78,4.95S390,382,415.36,367.07c24.13-14.27,33.43-29.05,32.91-42.59-.41-10.57-3.37-16-4.92-18.11-1.14-1.57-3.52,7.6-10.94,16.85A85.35,85.35,0,0,1,408,344.25Z" style="fill:#455a64"></path><path d="M443.21,318.38l-1.13-1.54s-3.68,11.43-23,26.7c-20.7,16.34-50.15,22.63-50.15,22.63l-1.23,1.94c16.23-3.43,34.27-9.14,52.21-22.91C438.84,330.65,443.21,318.38,443.21,318.38Zm-72.44,54.17c13.17-3.21,31.78-8.42,51.44-23.4,17.94-13.7,22.09-25.77,22.35-27.81a5.86,5.86,0,0,0-.73-2.49s-2.85,13.49-22.38,28.67c-22.26,17.27-52.16,23.79-55.47,23.9a16.29,16.29,0,0,1-1.12,2C365.25,373.44,370.1,372.71,370.77,372.55Zm76.56-49.69s-1.19,17.63-21.07,32.61c-25.38,19.13-51.58,26.12-61.51,26.45,1.58,1.21,5,1.45,12.21-.48s26.81-7,49.9-24.39c15.91-12,19.62-23.65,20.39-29.77A17.55,17.55,0,0,0,447.33,322.86ZM373.86,377a133.64,133.64,0,0,0,50.67-23.89c16.93-12.84,20.86-24.71,21.37-28.79a8.55,8.55,0,0,0-.32-3.45s-2,15.56-21.72,30.63c-22.56,17.24-47.79,23.73-56,24.88a48.17,48.17,0,0,1-5.51.59,10.57,10.57,0,0,0-1,1.87c2.26-.06,5.13-.45,7.27-.74C369.94,377.91,372.33,377.38,373.86,377Z" style="fill:#263238"></path><path d="M367.67,362.18l3.49,1.31s24.3-4.89,44.88-20.18c21.4-15.92,25.14-27.74,25.14-27.74v-3.63s-7.46,16.3-25.73,29.15A133,133,0,0,1,367.67,362.18Z" style="fill:#e0e0e0"></path><path d="M367.67,362.18l3.49,1.31s24.3-4.89,44.88-20.18c21.4-15.92,25.14-27.74,25.14-27.74v-3.63s-7.46,16.3-25.73,29.15A133,133,0,0,1,367.67,362.18Z" style="opacity:0.2"></path><path d="M358.81,378.87l1.3-2.32S341,377.4,337,375.23c-1-.54-5.4-9-2.44-8.5,7.13,1.19,19,1.18,34.6-2.44l-3.6-1.41a94.47,94.47,0,0,1-21.06,2.39c-9.79.17-12.89-1.07-12.89-1.07a15.21,15.21,0,0,0-4.71,6.4,40.08,40.08,0,0,0,6.51,5.53c3.3,2.45,5.29,2.58,11.24,2.84S358.81,378.87,358.81,378.87Z" style="fill:#e0e0e0"></path><path d="M360.86,375.3l6-9.13A100.88,100.88,0,0,1,352.6,368a162.73,162.73,0,0,1-16.66-.09c-1.34,0-1.32.67-.12,3.49s1.69,3.27,4.1,3.67A109,109,0,0,0,360.86,375.3Z" style="fill:#37474f"></path><path d="M338.58,373.05a6.87,6.87,0,0,0,3.73,1.07c.77.05,3.11.45,3.65-.27a.77.77,0,0,0,0-.79,2.12,2.12,0,0,0-.53-.63,16.66,16.66,0,0,0-2.86-2.23c-1.41-.8-5.74-1.88-5.1,1.25A2.74,2.74,0,0,0,338.58,373.05Z" style="fill:#e0e0e0"></path><path d="M346,369.45a.76.76,0,0,0-.43.43c-.21.67.87,1.33,1.3,1.65a15.66,15.66,0,0,0,6.22,2.3,11,11,0,0,0,4.15.27,6.83,6.83,0,0,0,4.59-3c.38-.59,1-1.84.18-2.33s-2.19-.13-3-.07l-5.28.38c-1.68.12-3.38.06-5.07.14A7.78,7.78,0,0,0,346,369.45Z" style="fill:#e0e0e0"></path><path d="M441.71,310.63l.29,3.42a24,24,0,0,1,1.65-3.93c.45-.46,1.73,1.45,2.49,3.3-1.25-3.72-2.89-7.12-3.52-5.53A26.51,26.51,0,0,0,441.71,310.63Z" style="fill:#e0e0e0"></path><path d="M442.31,315.28l5.15,6.77a32.34,32.34,0,0,0-2.32-9.8c-.84-1.52-1.33-1.57-1.79,0S442.31,315.28,442.31,315.28Z" style="fill:#37474f"></path><path d="M443.72,313.83a4.25,4.25,0,0,0,.54,2.28,10.12,10.12,0,0,0,1.42,1.9.3.3,0,0,0,.21.12c.14,0,.18-.2.18-.34a9.16,9.16,0,0,0-.72-3.46c-.13-.3-.51-1.43-.83-1.54S443.74,313.5,443.72,313.83Z" style="fill:#e0e0e0"></path><path d="M415.22,346.11c-5.5,3.81,0,12.56,5.3,9S420.27,342.61,415.22,346.11Z" style="fill:#e0e0e0"></path><path d="M213.68,304.72c1.87,8.94,11.77,10.82,19.19,10.6,3.92-.11,7.15-.83,8.14-1.4,2.87-1.65,1.54-5.08,0-7.07-2.59-3.36-14.25-10.11-21.56-10.34C215.17,296.36,212.37,298.45,213.68,304.72Z" style="fill:#78B3CE"></path><path d="M213.68,304.72c1.87,8.94,11.77,10.82,19.19,10.6,3.92-.11,7.15-.83,8.14-1.4,2.87-1.65,1.54-5.08,0-7.07-2.59-3.36-14.25-10.11-21.56-10.34C215.17,296.36,212.37,298.45,213.68,304.72Z" style="fill:#fff;opacity:0.30000000000000004"></path><path d="M213.68,304.72c1.87,8.94,11.77,10.82,19.19,10.6,3.92-.11,7.15-.83,8.14-1.4,2.87-1.65,1.54-5.08,0-7.07,1.45,2.73-6.19,4.42-13,2s-11.88-7.7-8.57-12.32C215.17,296.36,212.37,298.45,213.68,304.72Z" style="fill:#78B3CE"></path><path d="M213.68,304.72c1.87,8.94,11.77,10.82,19.19,10.6-7.38-.21-13.27-4.46-15.49-9.1s-.53-9.12,2.08-9.71C215.17,296.36,212.37,298.45,213.68,304.72Z" style="fill:#37474f"></path></g></g></g></svg>
