<svg xmlns="http://www.w3.org/2000/svg" viewBox="0 0 500 500"><g id="freepik--Floor--inject-110"><g id="freepik--floor--inject-110"><path id="freepik--floor--inject-110" d="M77.66,238.71c-95.18,55-95.17,144,0,199s249.49,54.95,344.67,0,95.17-144,0-199S172.84,183.75,77.66,238.71Z" style="fill:#455a64"></path><path d="M76.84,355.87l23.44,13.54,7-4L83.81,351.85ZM37.17,333,60.61,346.5l7-4L44.14,329Zm79.34,45.81,23.43,13.53,7-4-23.44-13.53Zm-107.39-62,11.82,6.82,7-4L11.23,310C10.43,312.22,9.73,314.49,9.12,316.78Zm147,84.9,23.44,13.53,7-4-23.44-13.54Zm79.34,45.8L259,461l7-4-23.44-13.53Zm46.64,18.88-7,4,11.93,6.89q5.94-.52,11.82-1.21Zm-86.31-41.78,23.44,13.53,7-4-23.44-13.53Z" style="fill:#fafafa"></path></g></g><g id="freepik--Shadow--inject-110"><path id="freepik--shadow--inject-110" d="M179.42,202.45l-121,70c-17.07,9.89-13.08,27.36,8.53,38.83l184.26,97.57C381.11,477.94,536,388.55,416.5,313.51L246.64,207.3C226.74,194.84,196.5,192.56,179.42,202.45Z" style="fill:#37474f"></path></g><g id="freepik--Car--inject-110"><g id="freepik--sports-car--inject-110"><path d="M111.72,256.81S92.35,231.22,72.57,241s-8.19,43.16-8.19,43.16Z" style="fill:#263238"></path><path d="M294.61,345.12s-19.37-25.59-39.16-15.84-8.18,43.17-8.18,43.17Z" style="fill:#263238"></path><path d="M244.57,169.43c-9.41,0-16.25-12.29-27.61-14.49-4.81-.93-10.64-1.46-19.38,3.58-11.79,6.82-17.42,14.31-17.42,14.31s6.48-4.71,21.89,1.78c8.06,3.4,15.6,10.37,15.6,10.37Z" style="fill:#78B3CE"></path><path d="M244.57,169.43c-9.41,0-16.25-12.29-27.61-14.49-4.81-.93-10.64-1.46-19.38,3.58-11.79,6.82-17.42,14.31-17.42,14.31s6.48-4.71,21.89,1.78c8.06,3.4,15.6,10.37,15.6,10.37Z" style="fill:#fff;opacity:0.15"></path><path d="M217.65,185s-7.54-7-15.6-10.37c-15.41-6.49-21.89-1.78-21.89-1.78-11.54,5.83-65.23,36.92-81.24,47l32.73,14.6Z" style="fill:#78B3CE"></path><path d="M80.71,260.81l-6.25-12.4,14.86-8.6h0c4.73-2.71,11-2.4,17.93,1.58,14.67,8.48,26.56,30.33,26.56,48.81,0,9.68-3.26,16.51-8.47,19.61h0l-.21.12,0,0-15.23,8.8-6.59-13.09C90.82,296.12,81.19,277.3,80.71,260.81Z" style="fill:#263238"></path><path d="M65.22,268.44c0,15.94,8.85,34.38,20.69,44.59a.11.11,0,0,1,0,0,39.45,39.45,0,0,0,5.83,4.18c14.67,8.48,26.58.35,26.56-18.13,0-14-6.79-29.86-16.43-40.44,0,0-.06-.05-.08-.08a43,43,0,0,0-10-8.28C77.11,241.85,65.22,250,65.22,268.44Z" style="fill:#37474f"></path><path d="M65.22,268.44c0,15.94,8.85,34.38,20.69,44.59-7-7.64-14.28-20.42-16.85-32.61-2.25-10.66-1.4-26,7.74-29.82s21.22,4.29,25,8a43,43,0,0,0-10-8.28C77.11,241.85,65.22,250,65.22,268.44Z" style="fill:#455a64"></path><path d="M91.79,261.24c-9.34-5.39-16.91.34-16.91,12.79s7.57,26.91,16.91,32.3,16.91-.33,16.91-12.78S101.13,266.63,91.79,261.24Zm0,41.2c-7.73-4.46-14-16.43-14-26.73s6.26-15,14-10.57,14,16.42,14,26.72S99.51,306.9,91.79,302.44Z" style="fill:#f5f5f5"></path><path d="M105.78,291.87c0,3.91-.91,7-2.47,9.14-2.51,3.42-6.73,4.18-11.51,1.43-7.74-4.47-14-16.42-14-26.72,0-7.21,3.06-11.69,7.54-12.2a10.57,10.57,0,0,1,6.46,1.61C99.52,269.59,105.78,281.57,105.78,291.87Z" style="fill:#e0e0e0"></path><path d="M105.78,291.87c0,3.91-.91,7-2.47,9.14-2.51,3.42-6.73,4.18-11.51,1.43-7.74-4.47-14-16.42-14-26.72,0-7.21,3.06-11.69,7.54-12.2a10.57,10.57,0,0,1,6.46,1.61C99.52,269.59,105.78,281.57,105.78,291.87Z" style="opacity:0.4"></path><path d="M105.78,291.87c0,3.91-.91,7-2.47,9.14a10.52,10.52,0,0,1-6.47-1.62c-7.73-4.45-14-16.42-14-26.72,0-3.93.92-7.05,2.49-9.15a10.57,10.57,0,0,1,6.46,1.61C99.52,269.59,105.78,281.57,105.78,291.87Z" style="fill:#263238"></path><path d="M89.89,277.35l-2.52,7.33-6-13.16a11.24,11.24,0,0,1,1.27-4.46Z" style="fill:#e0e0e0"></path><path d="M87.4,283.14l4.52,6.38-4.47,5.13a8.59,8.59,0,0,1-2.53-3.46Z" style="fill:#e0e0e0"></path><path d="M97,288.33l-1.27.53-.32-1.46-5,1.38,10.21,14.54a7.55,7.55,0,0,0,2.72-2.31,8.18,8.18,0,0,0,.45-.69Z" style="fill:#e0e0e0"></path><path d="M105.25,286.47,97,288.33h0l-.77-1.25-.82.32L94,281l1,.58-.07-1.66,8.39-.05A35.74,35.74,0,0,1,105.25,286.47Z" style="fill:#e0e0e0"></path><path d="M94.94,279.94l-1.26-.4L94,281l-5.43-3.15,4.78-11.73a23.49,23.49,0,0,1,4.05,3.79Z" style="fill:#e0e0e0"></path><path d="M97.08,286.84c0,3.9-2.37,5.69-5.29,4s-5.29-6.21-5.29-10.11,2.37-5.69,5.29-4S97.08,283,97.08,286.84Z" style="fill:#f5f5f5"></path><path d="M276.22,166.69c-7.23-1.35-24.78-1.22-31.15,2.46,0,0-69.33,40.22-86.07,49.69C138.93,230.2,118.84,242,118.84,242l44.28,25.57c-7.44-4.3-11.83-8.61-16-15.36s-6-10.64-1.22-14c8.12-5.73,14.8-9.76,20.52-9.75,5.5,0,9.56.59,24.72,5.31,10.79,3.35,14.68,9.62,23.68,26.27s18.7,34.78,21.65,40l81.6-123.76C306.53,169.34,292.78,169.79,276.22,166.69Z" style="fill:#78B3CE"></path><path d="M276.22,166.69c-7.23-1.35-24.78-1.22-31.15,2.46,0,0-69.33,40.22-86.07,49.69C138.93,230.2,118.84,242,118.84,242l44.28,25.57c-7.44-4.3-11.83-8.61-16-15.36s-6-10.64-1.22-14c8.12-5.73,14.8-9.76,20.52-9.75,5.5,0,9.56.59,24.72,5.31,10.79,3.35,14.68,9.62,23.68,26.27s18.7,34.78,21.65,40l81.6-123.76C306.53,169.34,292.78,169.79,276.22,166.69Z" style="fill:#fff;opacity:0.30000000000000004"></path><path d="M266,165.11c-23.57,0-64,9.5-64,9.5L118.84,223l12.81,11.53L159,218.84Z" style="fill:#78B3CE"></path><path d="M266,165.11c-23.57,0-64,9.5-64,9.5L118.84,223l12.81,11.53L159,218.84Z" style="fill:#fff;opacity:0.30000000000000004"></path><path d="M157.75,222.77c-9.39,4.85-14.74,7.74-18.49,10.55s1.6,13.64,1.6,13.64-8.64-13.26-15.33-19.16Z" style="fill:#78B3CE"></path><polygon points="242.83 170.44 159 218.84 121.79 224.84 205.63 176.48 242.83 170.44" style="fill:#263238"></polygon><polygon points="206 177.5 237.24 172.43 158.63 217.82 127.37 222.85 206 177.5" style="fill:#37474f"></polygon><path d="M244.57,321.12v49.77L199.88,345.1c-15.37-8.88-47-25.09-57.5-26.85a56.47,56.47,0,0,0-18.92,0L117.83,315c2.46-4.18,3.74-9.61,3.74-15.88,0-14.37-6.78-31.09-17.27-42.6l-.13-.13a46,46,0,0,0-10.78-8.86,25.55,25.55,0,0,0-12.66-3.78c-11.38,0-18.72,9.69-18.72,24.69a56.87,56.87,0,0,0,2.37,15.7l-4.16-2.41s-2.85-6.48-3-21c-.08-8.91-1.32-20.47,13.33-28.93,31.27-18,58.71,23.44,74.66,36.55S244.57,321.12,244.57,321.12Z" style="fill:#78B3CE"></path><path d="M244.57,321.12v49.77L199.88,345.1c-15.37-8.88-47-25.09-57.5-26.85a56.47,56.47,0,0,0-18.92,0L117.83,315c2.46-4.18,3.74-9.61,3.74-15.88,0-14.37-6.78-31.09-17.27-42.6l-.13-.13a46,46,0,0,0-10.78-8.86,25.55,25.55,0,0,0-12.66-3.78c-11.38,0-18.72,9.69-18.72,24.69a56.87,56.87,0,0,0,2.37,15.7l-4.16-2.41s-2.85-6.48-3-21c-.08-8.91-1.32-20.47,13.33-28.93,31.27-18,58.71,23.44,74.66,36.55S244.57,321.12,244.57,321.12Z" style="opacity:0.2"></path><path d="M242.39,347.52c-19.73-12.79-83.23-53.78-102.79-69.13-23.11-18.12-26.14-32.22-42.52-43.82-7.93-5.62-19.19-6.92-26.51-2.72l15.17-8.75a32.86,32.86,0,0,1,31.91-.82c.41.21.8.44,1.19.67,8.4,5,12.15,10.59,17.59,17.82,8.77,11.66,9.17,16,25.39,25.74s65.84,38.34,65.84,38.34l8.82-4.8,7.26,12.1Z" style="fill:#78B3CE"></path><path d="M242.39,347.52c-19.73-12.79-83.23-53.78-102.79-69.13-23.11-18.12-26.14-32.22-42.52-43.82-7.93-5.62-19.19-6.92-26.51-2.72l15.17-8.75a32.86,32.86,0,0,1,31.91-.82c.41.21.8.44,1.19.67,8.4,5,12.15,10.59,17.59,17.82,8.77,11.66,9.17,16,25.39,25.74s65.84,38.34,65.84,38.34l8.82-4.8,7.26,12.1Z" style="fill:#fff;opacity:0.15"></path><path d="M233.73,311c-.29-.22-62.4-35.3-70.46-40.1A80.4,80.4,0,0,1,143,253.17c2.17,6,2,7.53-.88,13,2.44-1.41,6.66,0,19.9,7.05C174.49,279.82,233.73,311,233.73,311Z" style="fill:#fff;opacity:0.30000000000000004"></path><path d="M129.67,257.65a51.84,51.84,0,0,0-11.11-17.34c-4.39-4.41-10.71-9.56-17-10.81-1.41-.28-3.3.58-3.07,2a2.65,2.65,0,0,0,.79,1.33,62.41,62.41,0,0,0,6.14,5.45c5.89,4.94,11.37,11.88,15.64,18.23,2.17,3.22,4.47,6.1,8.09,7.5a.84.84,0,0,0,1.34-.71A10.65,10.65,0,0,0,129.67,257.65Z" style="fill:#fff;opacity:0.2"></path><g style="opacity:0.5"><path d="M154.57,261.46c-3.25,6.34-6.55,12.72-8.87,19.46a28.63,28.63,0,0,0-1.24,6.91c-.65,7.09-.63,14.27-.7,21.4l-.06,7.16c-.4-4.76-.61-9.53-.69-14.31.07-7.14-.39-14.54,1.76-21.47a99.12,99.12,0,0,1,9.8-19.15Z"></path></g><path d="M139.51,303c-3-.07-6.91,2-9.34,6.12-2.73,4.65,1.1,3.15,9.81,4.46,9.12,1.37,19.59,5.89,29,10.69s70.24,39.34,70.24,39.34l-.55-6s-49.47-29.18-64.82-38.44C157.16,309.11,147.82,303.2,139.51,303Z" style="fill:#263238"></path><path d="M139.51,303c-3-.07-6.91,2-9.34,6.12-2.73,4.65,1.1,3.15,9.81,4.46,9.12,1.37,19.59,5.89,29,10.69s70.24,39.34,70.24,39.34l-.55-6s-49.47-29.18-64.82-38.44C157.16,309.11,147.82,303.2,139.51,303Z" style="fill:#78B3CE"></path><path d="M139.51,303c-3-.07-6.91,2-9.34,6.12-2.73,4.65,1.1,3.15,9.81,4.46,9.12,1.37,19.59,5.89,29,10.69s70.24,39.34,70.24,39.34l-.55-6s-49.47-29.18-64.82-38.44C157.16,309.11,147.82,303.2,139.51,303Z" style="opacity:0.5"></path><path d="M173.22,321c7.9,4.24,52.34,30.66,65.64,38.57l-.18-2s-49.47-29.18-64.82-38.44c-16.7-10.08-26-16-34.35-16.18a8.84,8.84,0,0,0-4.08,1.05c-.24.33-.48.64-.7,1-2.83,4.59,1,3.18,9.72,4.67C153.53,311.29,163.91,316,173.22,321Z" style="fill:#263238"></path><path d="M143.05,260.39c-10.27,13.73-10,29.7-9.85,36.63,0,0-1.26-3.81-3.5-12.34-3.42-13-2.76-13.25,1.23-16.56A76.28,76.28,0,0,1,143.05,260.39Z" style="fill:#263238"></path><path d="M143.05,260.39a88.11,88.11,0,0,0-8.86,5.27c-4.49,6-4.86,12.91-4.49,19,2.24,8.53,3.5,12.34,3.5,12.34C133.06,290.09,132.78,274.12,143.05,260.39Z" style="fill:#78B3CE"></path><path d="M143.05,260.39a88.11,88.11,0,0,0-8.86,5.27c-4.49,6-4.86,12.91-4.49,19,2.24,8.53,3.5,12.34,3.5,12.34C133.06,290.09,132.78,274.12,143.05,260.39Z" style="opacity:0.5"></path><path d="M154.83,278.39c-.21,2.79,2.83,4.66,5.28,6.29s5.85,2.54,5.92,1.05Z" style="fill:#37474f"></path><path d="M153.69,278.39l12.83,8s.35-3.85-5.2-7.7S153.69,278.39,153.69,278.39Z" style="fill:#78B3CE"></path><path d="M153.69,278.39l12.83,8s.35-3.85-5.2-7.7S153.69,278.39,153.69,278.39Z" style="opacity:0.2"></path><path d="M318.08,176.29c-11.55-6.95-27.13-10.48-44-11.07-11.69-.41-22.67.25-29,3.93,0,0-55.78,32.36-80.13,46.3-6.89,4.74-1.52,6.7,7.81,8.92,11.29,2.68,30.1,5.94,35.28,15.46l59.36,13.34Z" style="fill:#78B3CE"></path><path d="M318.08,176.29c-11.55-6.95-27.13-10.48-44-11.07-11.69-.41-22.67.25-29,3.93,0,0-55.78,32.36-80.13,46.3-6.89,4.74-1.52,6.7,7.81,8.92,11.29,2.68,30.1,5.94,35.28,15.46l59.36,13.34Z" style="fill:#fff;opacity:0.5"></path><path d="M250.42,169.65c-19.69,11.53-60.85,34.4-71.69,40.48s-17.49,9-7.07,11.58S194.54,227,200,229.44a27.55,27.55,0,0,1,9,6.46,18.27,18.27,0,0,0-9-13.13c-8.11-4.53-13.22-6.51,4.85-20S250.42,169.65,250.42,169.65Z" style="fill:#fff;opacity:0.2"></path><path d="M263.6,349.12l-6.25-12.4,14.86-8.6h0c4.73-2.71,11-2.4,17.93,1.58,14.67,8.48,26.56,30.33,26.56,48.81,0,9.68-3.26,16.51-8.47,19.61h0l-.21.12,0,0-15.23,8.8L286.17,394C273.71,384.43,264.08,365.61,263.6,349.12Z" style="fill:#263238"></path><path d="M248.11,356.75c0,15.94,8.85,34.38,20.69,44.59a.11.11,0,0,1,.05,0,39.45,39.45,0,0,0,5.83,4.18c14.67,8.48,26.58.35,26.56-18.13,0-14-6.79-29.86-16.43-40.44l-.08-.08a43,43,0,0,0-10.05-8.28C260,330.16,248.11,338.27,248.11,356.75Z" style="fill:#37474f"></path><path d="M248.11,356.75c0,15.94,8.85,34.38,20.69,44.59-7-7.64-14.28-20.42-16.85-32.61-2.25-10.66-1.4-26,7.74-29.82s21.22,4.29,25,8a43,43,0,0,0-10.05-8.28C260,330.16,248.11,338.27,248.11,356.75Z" style="fill:#455a64"></path><path d="M274.68,349.55c-9.34-5.39-16.91.34-16.91,12.79s7.57,26.91,16.91,32.3,16.9-.33,16.9-12.78S284,354.94,274.68,349.55Zm0,41.2c-7.73-4.46-14-16.43-14-26.73s6.26-15,14-10.57,14,16.42,14,26.72S282.4,395.21,274.68,390.75Z" style="fill:#f5f5f5"></path><path d="M288.67,380.18c0,3.91-.92,7-2.47,9.14-2.51,3.42-6.73,4.19-11.52,1.43-7.73-4.47-14-16.42-14-26.72,0-7.21,3.06-11.69,7.54-12.2a10.52,10.52,0,0,1,6.45,1.61C282.41,357.9,288.67,369.88,288.67,380.18Z" style="fill:#e0e0e0"></path><path d="M288.67,380.18c0,3.91-.92,7-2.47,9.14-2.51,3.42-6.73,4.19-11.52,1.43-7.73-4.47-14-16.42-14-26.72,0-7.21,3.06-11.69,7.54-12.2a10.52,10.52,0,0,1,6.45,1.61C282.41,357.9,288.67,369.88,288.67,380.18Z" style="opacity:0.4"></path><path d="M288.67,380.18c0,3.91-.92,7-2.47,9.14a10.52,10.52,0,0,1-6.47-1.62c-7.73-4.45-14-16.42-14-26.72,0-3.93.92-7.05,2.49-9.15a10.52,10.52,0,0,1,6.45,1.61C282.41,357.9,288.67,369.88,288.67,380.18Z" style="fill:#263238"></path><path d="M272.78,365.66,270.26,373l-6-13.16a11.43,11.43,0,0,1,1.28-4.46Z" style="fill:#e0e0e0"></path><path d="M270.29,371.45l4.52,6.38L270.34,383a8.59,8.59,0,0,1-2.53-3.46Z" style="fill:#e0e0e0"></path><path d="M279.84,376.64l-1.27.53-.32-1.46-5,1.38,10.21,14.54a7.55,7.55,0,0,0,2.72-2.31,8.18,8.18,0,0,0,.45-.69Z" style="fill:#e0e0e0"></path><path d="M288.14,374.78l-8.3,1.86h0l-.77-1.25-.82.32-1.36-6.38,1,.58-.07-1.66,8.39-.05A36.53,36.53,0,0,1,288.14,374.78Z" style="fill:#e0e0e0"></path><path d="M277.83,368.25l-1.26-.4.32,1.48-5.43-3.15,4.78-11.73a23.49,23.49,0,0,1,4.05,3.79Z" style="fill:#e0e0e0"></path><path d="M280,375.15c0,3.9-2.37,5.69-5.29,4s-5.29-6.21-5.29-10.11,2.37-5.69,5.29-4S280,371.26,280,375.15Z" style="fill:#f5f5f5"></path><path d="M318.08,176.29c30.52,22.37,53.2,57.1,53.2,57.1a190.57,190.57,0,0,1,54.35,34.77c26.11,24,32.93,43.5,26.64,63.17-4.38,13.73-12,26.46-28.26,37.77-18,12.53-42.56,24.1-80.28,15.91-24.2-5.25-23.84-11.33-40.77-32-11.73-14.34-17.18-19.23-31.62-24.94-3.09-1.22-6.64-2.38-10.67-3.88-11.68-4.36-15-7-24.93-25.47-11.21-20.77-30.85-57-30.85-57l3.14-1.81c50.32-11,86.92-31,107.08-61.82Z" style="fill:#78B3CE"></path><path d="M318.08,176.29c30.52,22.37,53.2,57.1,53.2,57.1a190.57,190.57,0,0,1,54.35,34.77c26.11,24,32.93,43.5,26.64,63.17-4.38,13.73-12,26.46-28.26,37.77-18,12.53-42.56,24.1-80.28,15.91-24.2-5.25-23.84-11.33-40.77-32-11.73-14.34-17.18-19.23-31.62-24.94-3.09-1.22-6.64-2.38-10.67-3.88-11.68-4.36-15-7-24.93-25.47-11.21-20.77-30.85-57-30.85-57l3.14-1.81c50.32-11,86.92-31,107.08-61.82Z" style="fill:#fff;opacity:0.30000000000000004"></path><path d="M247.55,309.55a7.68,7.68,0,0,0,1.53,5c1.72,1.91,12.62,4,25.06,9.18s21.61,12.24,27.74,20.47c-7.46-14.54-16.11-21-25-24.66S247.55,309.55,247.55,309.55Z" style="fill:#fff;opacity:0.30000000000000004"></path><path d="M377.51,245.8c34,15.83,46,32.2,54.95,46s13.1,35.64,13.1,44.69Z" style="fill:#78B3CE"></path><path d="M368.33,235.08c37.47,27.91,64.13,63,77.23,101.45-4.13,9.47-9.85,18.33-20.41,27.9a101.62,101.62,0,0,1-44.62,9.65c-35.23-26.39-63.09-49.63-136-67.54Z" style="fill:#78B3CE"></path><path d="M368.33,235.08l-45,26,16.47,13.61c35.56,20.82,70.88,60.47,85.94,89.21,10.17-9.36,15.76-18.07,19.81-27.35C432.46,298,405.8,263,368.33,235.08Z" style="fill:#fff;opacity:0.1"></path><path d="M424.86,362.29C414,343.11,398.47,327,382.81,311.69c-11.78-11.35-14.2-16.52-27.36-26.29l-6.72-4.81L341.85,276c33.14,18.12,66.71,52,83,86.29Z" style="fill:#78B3CE"></path><path d="M424.86,362.29C414,343.11,398.47,327,382.81,311.69c-11.78-11.35-14.2-16.52-27.36-26.29l-6.72-4.81L341.85,276c33.14,18.12,66.71,52,83,86.29Z" style="fill:#fff;opacity:0.15"></path><path d="M447.79,373.29c-12.91,19.6-46.3,41.47-89.57,41.33-34.15-.1-49.55-7.56-57.5-11.3,2.46-4.19,3.74-9.63,3.74-15.88,0-14.37-6.78-31.1-17.33-42.67l-.07-.07a46,46,0,0,0-10.78-8.86,25.55,25.55,0,0,0-12.67-3.78c-11.37,0-18.71,9.69-18.71,24.7a56.36,56.36,0,0,0,2.37,15.68l-2.7-1.55s-1.72-7.84-2.39-28.8a170.29,170.29,0,0,1,1.56-29.94c3.64,5.28,9.19,8.63,16.43,11.12,23.06,7.94,28.55,12.28,42.79,29.7,16.93,20.71,16.57,26.79,40.77,32,37.73,8.18,62.26-3.4,80.28-15.93,16.26-11.3,23.87-24,28.26-37.75a46.7,46.7,0,0,0,2-9.61c1.55,5.27-1.76,19.26-2.54,23.43C450.56,351.48,457.44,358.65,447.79,373.29Z" style="fill:#78B3CE"></path><path d="M453,357.09c0,.33,0,.65,0,1,0,4.05-1.1,8.95-5.23,15.22-12.91,19.61-46.3,41.48-89.57,41.34h-1.58c-33.05-.33-48.1-7.6-55.92-11.29,2.46-4.18,3.73-9.62,3.73-15.88,0-14.37-6.77-31.1-17.32-42.66l-.08-.08a45.73,45.73,0,0,0-10.77-8.85,25.45,25.45,0,0,0-12.67-3.78c-.45,0-.89,0-1.31.05a8.24,8.24,0,0,0-1,.09l-.34.05c-.24,0-.48.07-.71.12l-.32.06a8.4,8.4,0,0,0-1,.24,15.53,15.53,0,0,0-3.88,1.59.33.33,0,0,0-.1.06.1.1,0,0,0,0,0c-6.27,3.7-10,11.69-10,22.39a56.44,56.44,0,0,0,2.38,15.69l-2.7-1.55s-1.72-7.84-2.4-28.81a170.18,170.18,0,0,1,1.57-29.94c3.64,5.28,9.19,8.63,16.42,11.13,23.07,7.93,28.55,12.28,42.79,29.69,16.93,20.71,16.58,26.79,40.78,32C381.46,393.2,406,381.63,424,369.1c16.26-11.31,23.87-24,28.26-37.76a46.7,46.7,0,0,0,2-9.61c1.55,5.27-1.76,19.27-2.54,23.43-.52,2.74.49,5.64,1,9.22v0c.05.27.08.56.11.86s0,.42.07.65,0,.31,0,.47S453,356.85,453,357.09Z" style="fill:#78B3CE"></path><path d="M208,239.83l36.54,66.71s28.06,8.48,81.48-22.37,42.28-49.09,42.28-49.09c-14.93-21-32.88-39.87-53.22-57.07,0,0-12,16.32-44.67,35.23A278.55,278.55,0,0,1,208,239.83Z" style="fill:#263238"></path><path d="M255.05,305.46a45.48,45.48,0,0,1-9.05-.78l-34.8-63.52a289.72,289.72,0,0,0,60.31-26.07c26.83-15.53,39.82-29.24,43.89-34a310.16,310.16,0,0,1,51.12,55.17c.4.83,7.7,17.66-41.54,46.09-34.87,20.13-58.78,23.14-69.93,23.14Z" style="fill:#37474f"></path><path d="M257.77,304.25c-7.55-.49-10.77-1.82-14-7.18S228,267.25,222.59,256.62s-8.26-12.7,1.08-17.26,28.71-12.31,44.14-22.16h0a290.1,290.1,0,0,1-56.61,24L246,304.68a45.48,45.48,0,0,0,9.05.78c7.72,0,21.57-1.45,40.94-9C285.14,300.43,264.67,304.69,257.77,304.25Z" style="fill:#fff;opacity:0.2"></path><g style="opacity:0.2"><path d="M331.73,278.28c-6.1-12.78-21.52-41.09-49.89-69.5-3.19,2.06-6.62,4.17-10.33,6.31-3,1.73-5.95,3.36-8.87,4.91a262.09,262.09,0,0,1,50.49,68.73c3.8-1.92,7.75-4,11.85-6.41C327.36,280.94,329.6,279.6,331.73,278.28Z" style="fill:#fff"></path><path d="M364.29,249.05a350.67,350.67,0,0,0-53.13-63.4,163.25,163.25,0,0,1-23.94,19.56c28.21,28,43.81,56.06,50.25,69.37C353.23,264,360.79,255.42,364.29,249.05Z" style="fill:#fff"></path></g><path d="M453,358.06c0,4.05-1.1,8.95-5.23,15.22-12.91,19.61-46.3,41.48-89.57,41.34h-1.58c-33.05-.33-48.1-7.6-55.92-11.29,2.46-4.18,3.73-9.62,3.73-15.88,0-14.37-6.77-31.1-17.32-42.66l-.08-.08a45.73,45.73,0,0,0-10.77-8.85,25.45,25.45,0,0,0-12.67-3.78c-.45,0-.89,0-1.31.05s-.68.06-1,.09l-.34.05c-.24,0-.49.08-.71.12l-.32.06c-.33.07-.67.15-1,.24a15.87,15.87,0,0,0-4.1,1.74l.07-.05a.1.1,0,0,1,0,0,.33.33,0,0,1,.1-.06c8.65-5.28,19.69-5.47,35.19,9.12,15.2,14.28,22.33,41.59,16.63,58.27a92.54,92.54,0,0,0,24.5,7.26c29.17,4.31,57.18.89,80.14-10.22s38.22-28.67,41.23-44.3c.05.27.08.56.11.86s0,.42.07.65,0,.31,0,.47,0,.47,0,.71S453,357.74,453,358.06Z" style="fill:#78B3CE"></path><path d="M453,358.06c0,4.05-1.1,8.95-5.23,15.22-12.91,19.61-46.3,41.48-89.57,41.34h-1.58c-33.05-.33-48.1-7.6-55.92-11.29,2.46-4.18,3.73-9.62,3.73-15.88,0-14.37-6.77-31.1-17.32-42.66l-.08-.08a45.73,45.73,0,0,0-10.77-8.85,25.45,25.45,0,0,0-12.67-3.78c-.45,0-.89,0-1.31.05s-.68.06-1,.09l-.34.05c-.24,0-.49.08-.71.12l-.32.06c-.33.07-.67.15-1,.24a15.87,15.87,0,0,0-4.1,1.74l.07-.05a.1.1,0,0,1,0,0,.33.33,0,0,1,.1-.06c8.65-5.28,19.69-5.47,35.19,9.12,15.2,14.28,22.33,41.59,16.63,58.27a92.54,92.54,0,0,0,24.5,7.26c29.17,4.31,57.18.89,80.14-10.22s38.22-28.67,41.23-44.3c.05.27.08.56.11.86s0,.42.07.65,0,.31,0,.47,0,.47,0,.71S453,357.74,453,358.06Z" style="opacity:0.2"></path><path d="M364,371.18a16.7,16.7,0,0,0-4.52-6,76.37,76.37,0,0,0-24.08-15.36,66.48,66.48,0,0,0-20.35-5.12,13.45,13.45,0,0,0-4.9.32c-7.57,2.33,4.3,16.73,6.83,19.44,7.52,8.06,16.64,13.83,27.44,16.23,5.68,1.26,17.18,2.28,19.82-3.93A7.5,7.5,0,0,0,364,371.18Z" style="fill:#263238"></path><path d="M326.31,348.5c-6.54-.53-14.8,5-11,11.56s14.55,14,21.78,16.81c8.46,3.34,15,4.07,21.21,2.61,5.76-1.35,5.49-7.29,1.75-11.73S347.17,357,340.16,353.29C334.55,350.34,328.79,348.7,326.31,348.5Z" style="fill:#37474f"></path><path d="M337.77,361a7.24,7.24,0,0,0-3.81,4.91,6.7,6.7,0,0,0,0,3.24,8.3,8.3,0,0,0,1.49,2.91c2.7,3.56,7,5.15,11.21,5.89,3.93.68,13.62,1.21,13.39-5.12-.16-4.33-4.72-7.81-9.15-10.66C347.36,359.85,341.67,358.91,337.77,361Z" style="fill:#455a64"></path><path d="M340.85,355.75a50.79,50.79,0,0,1,15,10.93c1.18,1.32,2.52,3.14,2.24,5s-2.14,2.8-3.75,3.37-5.38,1.58-6.77,0c.21-.45.74-.63,1.15-.91,1.42-1,1.33-3.13.77-4.77-2-5.93-7.52-9.85-12.8-13.21-.5-.32-4.39-2.84-2.26-3.13a2.2,2.2,0,0,1,1.14.24C337.31,354.07,339.09,354.87,340.85,355.75Z" style="fill:#fff;opacity:0.30000000000000004"></path><path d="M320.39,359.16c1.2,3.4,5.81,5.5,9.08,3.81a6.22,6.22,0,0,0,2.73-8,6.71,6.71,0,0,0-4.33-3.64A6.06,6.06,0,0,0,320.39,359.16Z" style="fill:#455a64"></path><path d="M443,306.14c1.13,4.83,3.37,10.72,5.9,13.8,1.2,1.47,2.52,2.13,3.74,1.81a3.56,3.56,0,0,0,1.73-1.3c.71-11.18-3.14-22.59-12.67-35.06A81.08,81.08,0,0,0,443,306.14Z" style="fill:#263238"></path><path d="M445.09,294.25c-1.68,2.32-1.16,7.91-.79,10.57a35.9,35.9,0,0,0,4.91,13,4.65,4.65,0,0,0,2.92,2.23c.93.07,1.73-.72,2.32-1.71.1-8.09-2.22-16.33-7.36-25A2.09,2.09,0,0,0,445.09,294.25Z" style="fill:#37474f"></path><path d="M454.43,316.55a42.89,42.89,0,0,0-2.17-12l-.21-.28c-1-1.34-3.54-3.95-5.17-1.89a4.52,4.52,0,0,0-.69,2.92,20,20,0,0,0,.87,5.25,20.72,20.72,0,0,0,2.91,6.06c1.17,1.65,3.44,2.64,4.35.24Z" style="fill:#455a64"></path><path d="M450.87,300.84A59.6,59.6,0,0,0,448,295a2.27,2.27,0,0,0-1.75,2.24,2.59,2.59,0,0,0,0,.68,3.36,3.36,0,0,0,1.15,2,5.21,5.21,0,0,0,1,.64A3,3,0,0,0,450.87,300.84Z" style="fill:#455a64"></path><path d="M453,315.57a2.54,2.54,0,0,0,1.37-.72c-.64-8.61-4-17.43-10.7-26.83a65.58,65.58,0,0,1,5.44,10.53,29.89,29.89,0,0,1,2.31,11.65c0,.8-.66,1.59-1.5,1a.84.84,0,0,0-.33-.19c-.29-.05-.47.33-.48.63a4.62,4.62,0,0,0,2.34,3.7A2.88,2.88,0,0,0,453,315.57Z" style="fill:#fff;opacity:0.30000000000000004"></path><path d="M382.67,392.38c-21,4.48-42.78-1.42-54.9-4.28-7.7-1.82-5.11,4,2.72,9.3a55.1,55.1,0,0,0,14.89,6.54c15.41,4.25,33.89.48,33.89.48s-12,.06-21-4.14S368.3,400.21,382.67,392.38Z" style="fill:#263238"></path><path d="M376.31,404.31c-4.14-.25-11.82-1.12-18.09-4-4.53-2.1-2-2.12,3.44-2.59-1.13.16-.43,1.14,3.55,3.05A36.75,36.75,0,0,0,376.31,404.31Z" style="opacity:0.2"></path><path d="M442.69,356.19c-7.66,10-20.66,20.42-37.1,27.79-9.41,4.21-12.41,5.24-14.28,6-5.17,2.09,1.47,7.29,6.19,8.49,4,1,11.47-.35,20.83-5.75,9.94-5.74,21.15-14.78,25.59-23.59C446.17,364.66,446.58,351.1,442.69,356.19Z" style="fill:#78B3CE"></path><path d="M442.69,356.19c-7.66,10-20.66,20.42-37.1,27.79-9.41,4.21-12.41,5.24-14.28,6-5.17,2.09,1.47,7.29,6.19,8.49,4,1,11.47-.35,20.83-5.75,9.94-5.74,21.15-14.78,25.59-23.59C446.17,364.66,446.58,351.1,442.69,356.19Z" style="opacity:0.30000000000000004"></path><path d="M444.33,368.16l-8.12-4.69a70.67,70.67,0,0,0,6.48-7.28C446.34,351.41,446.2,363,444.33,368.16Z" style="opacity:0.30000000000000004"></path><path d="M410.28,388.1c10.37-4.93,22.26-13.06,27.39-21.49a21.35,21.35,0,0,0,2.15-7c-7.84,8.89-19.68,17.81-34.23,24.33-9.41,4.21-12.41,5.24-14.28,6-1.44.58-2,1.41-1.87,2.32C393.41,393.44,400.83,392.61,410.28,388.1Z"></path><line x1="444.33" y1="368.16" x2="436.21" y2="363.47" style="fill:none"></line><path d="M453.4,336.7a59.16,59.16,0,0,1-6.66,14.49c3.08-3.08,3.61-3.07,3.57,0S448,362.44,448,362.44a54.22,54.22,0,0,0,4.32-10.5c-.48-2.51-1-4.69-.58-6.78C452.05,343.51,452.76,340.29,453.4,336.7Z" style="fill:#263238"></path><path d="M191.15,233.74c10.79,3.35,14.68,9.62,23.68,26.27s18.7,34.78,21.65,40,5.17,12.87-8.82,4.8-57.09-33-64.54-37.26-11.83-8.61-16-15.36-6-10.64-1.22-14c8.12-5.73,14.8-9.76,20.52-9.74C171.93,228.45,176,229,191.15,233.74Z"></path><path d="M236.52,306.23c-.82,0-2.91-.42-7.79-3.24l-64.54-37.26c-7.05-4.07-11.18-8-15.23-14.62-4.72-7.66-4.64-9.19-1.81-11.18,7.94-5.61,14.26-9.35,19.24-9.35,5.19,0,9,.51,24.12,5.2,10.05,3.13,13.61,8.93,22.44,25.25,3.36,6.21,6.82,12.64,10,18.52,5.26,9.78,9.81,18.24,11.67,21.54,1.59,2.85,1.93,4.5,1.93,5.14Z" style="fill:#263238"></path><path d="M189.54,238.8a27.57,27.57,0,0,1,6.72,2.93,1.56,1.56,0,0,1,.67.7c.33.93-1.06,1.47-2.05,1.49-10,.15-20.65-.33-29.16,4.89-2.49,1.52-5.57,4.27-8.56,4.64-2.28.27-4.18-1.95-5.44-3.58s-3.14-4.58-2.41-6.6a6.22,6.22,0,0,1,1.79-2.3,29.92,29.92,0,0,1,9.81-6C170,231.59,180.8,236,189.54,238.8Z" style="fill:#fff;opacity:0.2"></path><path d="M164,238.82c1.58-5.54,2.68-10.17,4.75-10.33-.77,0-1.54-.05-2.33-.06a14.86,14.86,0,0,0-3.92.57c2.24-.53,1,3.15-.69,8.63-1.59,5.31-3.06,9.74-4.66,14.91-1.47,4.72-3.84,8.07-6.91,4.2v0a38.8,38.8,0,0,0,9.09,8.46c-1.2-1.7-1.9-3.8-1-7.36C159.35,254,162.43,244.37,164,238.82Z"></path><path d="M101,197.94c2.17,6.57,5.9,14.87,9.15,17.09s10.41,3.9,12.63,2-2-3-6.14-5.87c-3.66-2.53-10.17-8.07-14.1-14.21Z"></path><path d="M156.34,166.09c2.17,6.56,5.91,14.87,9.15,17.09s10.41,3.9,12.64,2-2.06-3-6.15-5.87c-3.65-2.53-10.17-8.07-14.1-14.22Z"></path><polygon points="162.89 166.07 162.89 142 164.64 140.99 184.85 152.66 184.85 162.73 172.72 169.73 172.72 169.73 170.98 170.74 162.89 166.07" style="fill:#78B3CE"></polygon><polygon points="162.89 142 183.1 153.67 183.1 163.74 170.98 170.74 162.89 166.07 162.89 142" style="fill:#78B3CE"></polygon><polygon points="162.89 142 183.1 153.67 183.1 163.74 170.98 170.74 162.89 166.07 162.89 142" style="opacity:0.15"></polygon><polygon points="183.1 153.67 184.85 152.66 164.64 140.99 162.89 142 183.1 153.67" style="fill:#fff;opacity:0.30000000000000004"></polygon><polygon points="184.85 162.73 183.1 163.74 183.1 153.67 184.85 152.66 184.85 162.73" style="opacity:0.30000000000000004"></polygon><polygon points="75.59 197.71 162.89 147.32 183.1 158.99 183.1 161.25 95.81 211.64 75.59 199.97 75.59 197.71" style="fill:#78B3CE"></polygon><polygon points="183.1 158.99 162.89 147.32 75.59 197.71 95.81 209.38 183.1 158.99" style="fill:#78B3CE"></polygon><polygon points="183.1 158.99 162.89 147.32 75.59 197.71 95.81 209.38 183.1 158.99" style="fill:#fff;opacity:0.30000000000000004"></polygon><polygon points="95.81 211.64 95.81 209.38 183.1 158.99 183.1 161.25 95.81 211.64" style="opacity:0.30000000000000004"></polygon><polygon points="162.89 142 170.97 151.98 85.42 201.37 77.34 191.38 162.89 142" style="fill:#78B3CE"></polygon><polygon points="75.59 216.46 75.59 192.39 77.34 191.38 97.55 203.05 97.55 213.12 85.42 220.12 85.42 220.12 83.68 221.13 75.59 216.46" style="fill:#78B3CE"></polygon><polygon points="75.59 192.39 95.81 204.06 95.81 214.13 83.68 221.13 75.59 216.46 75.59 192.39" style="fill:#78B3CE"></polygon><polygon points="95.81 204.06 97.55 203.05 77.34 191.38 75.59 192.39 95.81 204.06" style="fill:#fff;opacity:0.30000000000000004"></polygon><polygon points="97.55 213.12 95.81 214.13 95.81 204.06 97.55 203.05 97.55 213.12" style="opacity:0.30000000000000004"></polygon></g></g></svg>
